<?xml version="1.0" encoding="utf-8"?>
<!-- Generator: Adobe Illustrator 22.0.0, SVG Export Plug-In . SVG Version: 6.00 Build 0)  -->
<svg version="1.1" id="Layer_1" xmlns="http://www.w3.org/2000/svg" xmlns:xlink="http://www.w3.org/1999/xlink" x="0px" y="0px"
	 viewBox="0 0 85 45.4" style="enable-background:new 0 0 85 45.4;" xml:space="preserve">
<style type="text/css">
	.st0{fill:#D66C2D;stroke:#000000;stroke-width:0.4252;stroke-linecap:round;stroke-linejoin:round;stroke-miterlimit:10;}
	.st1{fill:#5C332A;stroke:#000000;stroke-width:0.4252;stroke-linecap:round;stroke-linejoin:round;stroke-miterlimit:10;}
	.st2{fill:#AE482D;}
	.st3{fill:#E76B20;}
	.st4{stroke:#000000;stroke-width:0.4252;stroke-linecap:round;stroke-linejoin:round;stroke-miterlimit:10;}
	.st5{fill:none;stroke:#000000;stroke-width:0.5669;stroke-linecap:round;stroke-linejoin:round;stroke-miterlimit:10;}
	.st6{fill:none;stroke:#000000;stroke-width:0.8504;stroke-linecap:round;stroke-linejoin:round;stroke-miterlimit:10;}
	.st7{stroke:#000000;stroke-width:0.5669;stroke-linecap:round;stroke-linejoin:round;stroke-miterlimit:10;}
	.st8{fill:none;stroke:#000000;stroke-width:0.9921;stroke-linecap:round;stroke-linejoin:round;stroke-miterlimit:10;}
	.st9{fill:#5C332A;stroke:#000000;stroke-width:0.5669;stroke-linecap:round;stroke-linejoin:round;stroke-miterlimit:10;}
	.st10{fill:none;stroke:#000000;stroke-width:0.4252;stroke-linecap:round;stroke-linejoin:round;stroke-miterlimit:10;}
</style>
<g>
	<path class="st0" d="M81.5,22.4v1c0-2.3-17.4-4.1-39-4.1c-21.5,0-39,1.8-39,4.1v-1c0-0.2,0.2-0.4,0.5-0.6v0c2.9-2,19-3.5,38.5-3.5
		C64,18.3,81.5,20.1,81.5,22.4z"/>
	<path class="st1" d="M80.6,25.7v-1.2c0-0.4-0.2-0.7-0.4-0.8c-0.2-0.1-0.4,0.2-0.4,0.6c-0.2-0.1-0.3-0.1-0.5-0.1
		c0-0.4-0.2-0.8-0.4-0.8c-0.2-0.1-0.4,0.2-0.4,0.6c-0.2,0-0.3-0.1-0.5-0.1c0-0.4-0.2-0.8-0.4-0.9c-0.3-0.1-0.5,0.3-0.5,0.7
		c-0.2,0-0.3-0.1-0.6-0.1v0c0-0.4-0.2-0.8-0.5-0.8c-0.3,0-0.5,0.3-0.5,0.7c-0.3,0-0.4-0.1-0.6-0.1v0c0-0.4-0.2-0.8-0.5-0.9
		c-0.3,0-0.6,0.3-0.6,0.7c-0.3,0-0.4-0.1-0.7-0.1v0c0-0.4-0.2-0.8-0.6-0.9c-0.3,0-0.6,0.3-0.6,0.7c-0.3,0-0.4,0-0.7-0.1v0
		c0-0.4-0.3-0.8-0.6-0.9c-0.3,0-0.6,0.3-0.6,0.8c-0.3,0-0.5,0-0.8-0.1c0,0,0,0,0,0c0-0.4-0.3-0.8-0.6-0.9c-0.4,0-0.7,0.3-0.7,0.8
		c-0.3,0-0.5,0-0.8-0.1v0c0-0.5-0.3-0.8-0.6-0.9c-0.4,0-0.7,0.3-0.7,0.8c-0.3,0-0.5,0-0.8-0.1c0,0,0,0,0,0c0-0.5-0.3-0.8-0.7-0.9
		c-0.4,0-0.7,0.3-0.7,0.8c-0.3,0-0.5,0-0.9-0.1c0,0,0,0,0,0c0-0.5-0.3-0.8-0.7-0.9c-0.4,0-0.7,0.3-0.7,0.8c-0.3,0-0.5,0-0.9,0
		c0,0,0,0,0,0c0-0.5-0.3-0.8-0.7-0.9c-0.4,0-0.8,0.3-0.8,0.8c-0.4,0-0.5,0-0.9,0c0-0.5-0.3-0.9-0.7-0.9c-0.4,0-0.8,0.3-0.8,0.8
		c-0.4,0-0.5,0-0.9,0c0,0,0,0,0,0c0-0.5-0.3-0.8-0.8-0.9c-0.4,0-0.8,0.3-0.8,0.8c-0.4,0-0.6,0-0.9,0c0,0,0,0,0,0
		c0-0.5-0.3-0.8-0.8-0.8c-0.4,0-0.8,0.3-0.8,0.8c-0.4,0-0.6,0-0.9,0c0-0.5-0.3-0.8-0.8-0.9c-0.4,0-0.8,0.4-0.8,0.8
		c-0.4,0-0.6,0-0.9,0c0,0,0,0,0,0c0-0.5-0.4-0.8-0.8-0.8c-0.4,0-0.8,0.4-0.8,0.8c-0.4,0-0.6,0-0.9,0c0-0.5-0.3-0.8-0.8-0.8
		c-0.4,0-0.8,0.4-0.8,0.8c-0.4,0-0.6,0-0.9,0c0-0.5-0.3-0.8-0.8-0.8c-0.4,0-0.8,0.4-0.8,0.8c-0.4,0-0.6,0-0.9,0
		c0-0.5-0.4-0.8-0.8-0.8c-0.4,0-0.8,0.4-0.8,0.8c-0.4,0-0.6,0-0.9,0c0-0.5-0.3-0.8-0.8-0.8c-0.4,0-0.8,0.4-0.8,0.8c0,0,0,0,0,0
		c-0.4,0-0.6,0-0.9,0c0-0.5-0.3-0.8-0.8-0.8c-0.4,0-0.8,0.4-0.8,0.9c-0.4,0-0.6,0-0.9,0c0-0.5-0.3-0.8-0.8-0.8
		c-0.4,0-0.8,0.4-0.8,0.8c0,0,0,0,0,0c-0.4,0-0.6,0-0.9,0c0-0.5-0.3-0.8-0.8-0.8c-0.4,0-0.8,0.4-0.8,0.9c0,0,0,0,0,0
		c-0.4,0-0.6,0-0.9,0c0-0.5-0.3-0.8-0.8-0.8c-0.4,0-0.7,0.4-0.7,0.9c-0.4,0-0.5,0-0.9,0c0-0.5-0.3-0.8-0.8-0.8
		c-0.4,0-0.7,0.4-0.7,0.9c0,0,0,0,0,0c-0.4,0-0.5,0-0.9,0c0-0.5-0.3-0.8-0.7-0.8c-0.4,0-0.7,0.4-0.7,0.9c0,0,0,0,0,0
		c-0.3,0-0.5,0-0.9,0.1c0-0.5-0.3-0.8-0.7-0.8c-0.4,0-0.7,0.4-0.7,0.9c0,0,0,0,0,0c-0.3,0-0.5,0-0.8,0.1c0-0.5-0.3-0.8-0.7-0.8
		c-0.4,0-0.6,0.4-0.6,0.9v0c-0.3,0-0.5,0-0.8,0.1c0-0.5-0.3-0.8-0.7-0.8c-0.3,0-0.6,0.4-0.6,0.9c0,0,0,0,0,0c-0.3,0-0.5,0-0.8,0.1
		c0-0.5-0.3-0.8-0.6-0.8c-0.3,0-0.6,0.4-0.6,0.9v0c-0.3,0-0.4,0-0.7,0.1c0-0.4-0.3-0.8-0.6-0.7c-0.3,0-0.6,0.4-0.6,0.9v0
		c-0.3,0-0.4,0.1-0.7,0.1c0-0.4-0.3-0.8-0.6-0.7c-0.3,0-0.5,0.4-0.5,0.9v0c-0.3,0-0.4,0.1-0.6,0.1c0-0.4-0.2-0.7-0.5-0.7
		c-0.3,0.1-0.5,0.4-0.5,0.8v0c-0.2,0-0.3,0.1-0.6,0.1c0-0.4-0.2-0.7-0.5-0.7c-0.3,0.1-0.4,0.5-0.4,0.9c-0.2,0-0.3,0.1-0.5,0.1
		c0-0.4-0.2-0.7-0.4-0.6c-0.2,0.1-0.4,0.5-0.4,0.8c-0.2,0.1-0.3,0.1-0.5,0.1c0-0.4-0.2-0.7-0.4-0.6c-0.2,0.1-0.4,0.5-0.4,0.8v1.2
		l-0.8-2.4c0-2.3,17.5-4.1,39-4.1c21.5,0,39,1.8,39,4.1L80.6,25.7z"/>
	<path class="st2" d="M80.6,24.8v19.1H4.4V24.8c0-0.4,0.2-0.7,0.4-0.8c0.2-0.1,0.4,0.2,0.4,0.6c0,0.5,0,0.7,0,1.2
		c0.2,0,0.3-0.1,0.5-0.1c0-0.5,0-0.8,0-1.2c0-0.4,0.2-0.8,0.4-0.8c0.2-0.1,0.4,0.2,0.4,0.6c0,0.5,0,0.7,0,1.3c0.2,0,0.3-0.1,0.5-0.1
		c0-0.6,0-0.8,0-1.3c0-0.4,0.2-0.8,0.4-0.9c0.3-0.1,0.5,0.3,0.5,0.7c0,0.5,0,0.8,0,1.3c0.2,0,0.3-0.1,0.6-0.1c0-0.6,0-0.8,0-1.3v0
		c0-0.4,0.2-0.8,0.5-0.8c0.3,0,0.5,0.3,0.5,0.7c0,0.5,0,0.8,0,1.4c0.2,0,0.4,0,0.6-0.1c0-0.6,0-0.8,0-1.4v0c0-0.4,0.2-0.8,0.5-0.9
		c0.3,0,0.6,0.3,0.6,0.7c0,0.5,0,0.8,0,1.4c0.3,0,0.4,0,0.7-0.1c0-0.6,0-0.8,0-1.4v0c0-0.4,0.2-0.8,0.6-0.9c0.3,0,0.6,0.3,0.6,0.7
		c0,0.6,0,0.8,0,1.4c0.3,0,0.4,0,0.7-0.1c0-0.6,0-0.9,0-1.4v0c0-0.4,0.3-0.8,0.6-0.9c0.3,0,0.6,0.3,0.6,0.8c0,0.6,0,0.8,0,1.4
		c0.3,0,0.5,0,0.8-0.1c0-0.6,0-0.9,0-1.4c0,0,0,0,0,0c0-0.4,0.3-0.8,0.6-0.9c0.4,0,0.7,0.3,0.7,0.8c0,0.6,0,0.9,0,1.4
		c0.3,0,0.5,0,0.8-0.1c0-0.6,0-0.9,0-1.5v0c0-0.5,0.3-0.8,0.6-0.9c0.4,0,0.7,0.3,0.7,0.8c0,0.6,0,0.9,0,1.5c0.3,0,0.5,0,0.8-0.1
		c0-0.6,0-0.9,0-1.5c0,0,0,0,0,0c0-0.5,0.3-0.8,0.7-0.9c0.4,0,0.7,0.3,0.7,0.8c0,0.6,0,0.9,0,1.5c0.3,0,0.5,0,0.8-0.1
		c0-0.6,0-0.9,0-1.5c0,0,0,0,0,0c0-0.5,0.3-0.8,0.7-0.9c0.4,0,0.7,0.3,0.7,0.8c0,0.6,0,0.9,0,1.5c0.3,0,0.5,0,0.9,0
		c0-0.6,0-0.9,0-1.5c0,0,0,0,0,0c0-0.5,0.3-0.8,0.7-0.9c0.4,0,0.8,0.3,0.8,0.8c0,0.6,0,0.9,0,1.5c0.4,0,0.5,0,0.9,0
		c0-0.6,0-0.9,0-1.5c0-0.5,0.3-0.9,0.7-0.9c0.4,0,0.8,0.3,0.8,0.8c0,0.6,0,0.9,0,1.5c0.4,0,0.5,0,0.9,0c0-0.6,0-0.9,0-1.5
		c0,0,0,0,0,0c0-0.5,0.3-0.8,0.8-0.9c0.4,0,0.8,0.3,0.8,0.8c0,0.6,0,0.9,0,1.5c0.4,0,0.6,0,0.9,0c0-0.6,0-0.9,0-1.5c0,0,0,0,0,0
		c0-0.5,0.3-0.8,0.8-0.8c0.4,0,0.8,0.3,0.8,0.8c0,0.6,0,0.9,0,1.5c0.4,0,0.6,0,0.9,0c0-0.6,0-0.9,0-1.5c0-0.5,0.3-0.8,0.8-0.9
		c0.4,0,0.8,0.4,0.8,0.8c0,0.6,0,0.9,0,1.5c0.4,0,0.6,0,0.9,0v-1.5c0,0,0,0,0,0c0-0.5,0.4-0.8,0.8-0.8c0.4,0,0.8,0.4,0.8,0.8v1.5
		c0.4,0,0.6,0,0.9,0v-1.5c0-0.5,0.3-0.8,0.8-0.8c0.4,0,0.8,0.4,0.8,0.8v1.5h0.9v-1.5c0-0.5,0.3-0.8,0.8-0.8c0.4,0,0.8,0.4,0.8,0.8
		v1.5h0.9v-1.5c0-0.5,0.4-0.8,0.8-0.8c0.4,0,0.8,0.4,0.8,0.8v1.5c0.4,0,0.6,0,0.9,0v-1.5c0-0.5,0.3-0.8,0.8-0.8
		c0.4,0,0.8,0.4,0.8,0.8c0,0,0,0,0,0v1.5c0.4,0,0.6,0,0.9,0c0-0.6,0-0.9,0-1.5c0-0.5,0.3-0.8,0.8-0.8c0.4,0,0.8,0.4,0.8,0.9
		c0,0.6,0,0.9,0,1.5c0.4,0,0.6,0,0.9,0c0-0.6,0-0.9,0-1.5c0-0.5,0.3-0.8,0.8-0.8c0.4,0,0.8,0.4,0.8,0.8c0,0,0,0,0,0
		c0,0.6,0,0.9,0,1.5c0.4,0,0.6,0,0.9,0c0-0.6,0-0.9,0-1.5c0-0.5,0.3-0.8,0.8-0.8c0.4,0,0.8,0.4,0.8,0.9c0,0,0,0,0,0
		c0,0.6,0,0.9,0,1.5c0.4,0,0.5,0,0.9,0c0-0.6,0-0.9,0-1.5c0-0.5,0.3-0.8,0.8-0.8c0.4,0,0.7,0.4,0.7,0.9c0,0.6,0,0.9,0,1.5
		c0.4,0,0.5,0,0.9,0c0-0.6,0-0.9,0-1.5c0-0.5,0.3-0.8,0.8-0.8c0.4,0,0.7,0.4,0.7,0.9c0,0,0,0,0,0c0,0.6,0,0.9,0,1.5
		c0.3,0,0.5,0,0.9,0c0-0.6,0-0.9,0-1.5c0-0.5,0.3-0.8,0.7-0.8c0.4,0,0.7,0.4,0.7,0.9c0,0,0,0,0,0c0,0.6,0,0.9,0,1.5
		c0.3,0,0.5,0,0.8,0.1c0-0.6,0-0.9,0-1.5c0-0.5,0.3-0.8,0.7-0.8c0.4,0,0.7,0.4,0.7,0.9c0,0,0,0,0,0c0,0.6,0,0.9,0,1.5
		c0.3,0,0.5,0,0.8,0.1c0-0.6,0-0.9,0-1.5c0-0.5,0.3-0.8,0.7-0.8c0.4,0,0.6,0.4,0.6,0.9v0c0,0.6,0,0.9,0,1.5c0.3,0,0.5,0,0.8,0.1
		c0-0.6,0-0.9,0-1.4c0-0.5,0.3-0.8,0.7-0.8c0.3,0,0.6,0.4,0.6,0.9c0,0,0,0,0,0c0,0.6,0,0.9,0,1.4c0.3,0,0.5,0,0.8,0.1
		c0-0.6,0-0.9,0-1.4c0-0.5,0.3-0.8,0.6-0.8c0.3,0,0.6,0.4,0.6,0.9v0c0,0.6,0,0.8,0,1.4c0.3,0,0.4,0,0.7,0.1c0-0.6,0-0.9,0-1.4
		c0-0.4,0.3-0.8,0.6-0.7c0.3,0,0.6,0.4,0.6,0.9v0c0,0.6,0,0.8,0,1.4c0.3,0,0.4,0,0.7,0.1c0-0.6,0-0.8,0-1.4c0-0.4,0.3-0.8,0.6-0.7
		c0.3,0,0.5,0.4,0.5,0.9v0c0,0.5,0,0.8,0,1.4c0.3,0,0.4,0.1,0.6,0.1c0-0.6,0-0.8,0-1.4c0-0.4,0.2-0.7,0.5-0.7
		c0.3,0.1,0.5,0.4,0.5,0.8v0c0,0.5,0,0.8,0,1.3c0.2,0,0.4,0.1,0.6,0.1c0-0.6,0-0.8,0-1.3c0-0.4,0.2-0.7,0.5-0.7
		c0.3,0.1,0.4,0.5,0.4,0.9c0,0.5,0,0.7,0,1.3c0.2,0,0.3,0.1,0.5,0.1c0-0.5,0-0.8,0-1.3c0-0.4,0.2-0.7,0.4-0.6
		c0.2,0.1,0.4,0.5,0.4,0.8c0,0.5,0,0.7,0,1.2c0.2,0,0.3,0.1,0.5,0.1c0-0.5,0-0.7,0-1.2c0-0.4,0.2-0.7,0.4-0.6
		C80.5,24.1,80.6,24.4,80.6,24.8z"/>
	<path class="st2" d="M81,16.4v5.3c-2.9-2-19-3.5-38.5-3.5C23,18.2,6.9,19.7,4,21.7v-5.3c0-0.4,0.7-0.7,1.3-1.1v3.1
		c0.4-0.2,0.8-0.4,1.4-0.5v-3.2c0.6-0.2,1.4-0.4,2.2-0.6v3.3c0.8-0.2,1.8-0.3,2.9-0.5v-3.4c1-0.2,2.2-0.4,3.4-0.5v3.5
		c1.2-0.1,2.5-0.3,3.8-0.4v-3.5c1.3-0.1,2.7-0.3,4.1-0.4v3.6c1.4-0.1,2.8-0.2,4.3-0.2v-3.7c1.4-0.1,2.9-0.2,4.5-0.2V6.9
		c0-0.4,0.3-0.8,0.8-0.8c0.4,0,0.8,0.3,0.8,0.8V7c0.3,0,0.6,0,0.9,0V6.8c0-0.4,0.3-0.8,0.8-0.8c0.4,0,0.8,0.3,0.8,0.8v0.1
		c0.3,0,0.6,0,0.9,0V6.8c0-0.4,0.3-0.8,0.8-0.8c0.4,0,0.8,0.3,0.8,0.8v0.1c0.3,0,0.6,0,0.9,0V6.7C39.3,6.3,39.6,6,40,6
		c0.4,0,0.8,0.3,0.8,0.8v0.1h0.9V6.7c0-0.4,0.3-0.8,0.8-0.8c0.4,0,0.8,0.3,0.8,0.8v0.1h0.9V6.7C44.2,6.3,44.6,6,45,6
		c0.4,0,0.8,0.3,0.8,0.8v0.2c0.3,0,0.6,0,0.9,0V6.8C46.7,6.4,47,6,47.5,6c0.4,0,0.8,0.3,0.8,0.8v0.2c0.3,0,0.6,0,0.9,0V6.8
		c0-0.4,0.3-0.8,0.8-0.8c0.4,0,0.8,0.3,0.8,0.8V7c0.3,0,0.6,0,0.9,0V6.9c0-0.4,0.3-0.8,0.8-0.8c0.4,0,0.8,0.3,0.8,0.8v4.7
		c1.5,0.1,3,0.1,4.5,0.2v3.7c1.5,0.1,2.9,0.1,4.3,0.2v-3.6c1.4,0.1,2.8,0.2,4.1,0.4V16c1.4,0.1,2.6,0.2,3.8,0.4v-3.5
		c1.2,0.2,2.4,0.3,3.4,0.5v3.4c1.1,0.2,2,0.3,2.9,0.5v-3.3c0.8,0.2,1.6,0.4,2.2,0.6v3.2c0.6,0.2,1,0.4,1.4,0.5v-3.1
		C80.3,15.7,81,16.1,81,16.4z"/>
	<path class="st3" d="M54.6,1.8v5.3c-0.5,0-1-0.2-1.4-0.2c0-0.4-0.3-0.8-0.8-0.8c-0.4,0-0.8,0.3-0.8,0.8V7c-0.3,0-0.6,0-0.9,0V6.9
		c0-0.4-0.3-0.8-0.8-0.8c-0.4,0-0.8,0.3-0.8,0.8V7c-0.3,0-0.6,0-0.9,0V6.8c0-0.4-0.3-0.8-0.8-0.8c-0.4,0-0.8,0.3-0.8,0.8v0.1
		c-0.3,0-0.6,0-0.9,0V6.8C45.8,6.4,45.4,6,45,6c-0.4,0-0.8,0.3-0.8,0.8v0.1h-0.9V6.8c0-0.4-0.3-0.8-0.8-0.8c-0.4,0-0.8,0.3-0.8,0.8
		v0.1h-0.9V6.8C40.8,6.4,40.5,6,40,6c-0.4,0-0.8,0.3-0.8,0.8v0.2c-0.3,0-0.6,0-0.9,0V6.8C38.4,6.4,38,6,37.6,6
		c-0.4,0-0.8,0.3-0.8,0.8V7c-0.3,0-0.6,0-0.9,0V6.9c0-0.4-0.3-0.8-0.8-0.8c-0.4,0-0.8,0.3-0.8,0.8V7c-0.3,0-0.6,0-0.9,0V6.9
		c0-0.4-0.3-0.8-0.8-0.8c-0.4,0-0.8,0.3-0.8,0.8v0.2c-0.5,0-1,0-1.4,0V1.8c1.4-0.1,2.7-0.2,4.1-0.3v2.6h1.2V1.5c0.8,0,1.6,0,2.5,0
		v2.7h1.2V1.5c0.8,0,1.6,0,2.5,0v2.7h1.2V1.4c0.8,0,1.7,0,2.5,0v2.7h1.2V1.5c0.8,0,1.7,0,2.5,0v2.7h1.2V1.6
		C51.9,1.6,53.2,1.8,54.6,1.8z"/>
	<g>
		<path class="st1" d="M61.2,27.1v3.2c-0.4,0-1.1-0.1-1.5-0.1V28L61.2,27.1z"/>
		<polygon class="st4" points="59.7,28 59.7,30.1 58.2,30.1 58.2,27.9 		"/>
		<path class="st1" d="M61.2,27.1L59.7,28l-1.5-0.1v-1C59.4,26.5,60,26.6,61.2,27.1z"/>
	</g>
	<g>
		<path class="st1" d="M75.9,28.3V31c-0.3,0-0.8-0.1-1.1-0.1V29L75.9,28.3z"/>
		<polygon class="st4" points="74.7,29 74.7,30.9 73.6,30.8 73.6,29 		"/>
		<path class="st1" d="M75.9,28.3L74.7,29L73.6,29v-0.8C74.5,27.8,75,27.8,75.9,28.3z"/>
	</g>
	<g>
		<path class="st1" d="M10.3,29v1.9C10,30.9,9.4,31,9.2,31v-2.7L10.3,29z"/>
		<polygon class="st4" points="11.5,29 11.5,30.8 10.3,30.9 10.3,29 		"/>
		<path class="st1" d="M11.5,28.1V29L10.3,29l-1.1-0.8C10.1,27.8,10.6,27.8,11.5,28.1z"/>
	</g>
	<g>
		<path class="st1" d="M25.1,28v2.2c-0.4,0-1.1,0.1-1.5,0.1v-3.2L25.1,28z"/>
		<polygon class="st4" points="26.6,27.9 26.6,30.1 25.1,30.1 25.1,28 		"/>
		<path class="st1" d="M26.6,26.9v1L25.1,28l-1.5-0.9C24.8,26.6,25.5,26.5,26.6,26.9z"/>
	</g>
	<g>
		<path class="st1" d="M42.5,37.2v6.5h-3.2v-5.6C40.3,37.5,41.4,37.2,42.5,37.2z"/>
		<path class="st1" d="M45.7,38.1v5.6h-3.2v-6.5C43.6,37.2,44.7,37.5,45.7,38.1z"/>
	</g>
	<path class="st5" d="M81.5,23.4v-1c0-2.3-17.4-4.1-39-4.1s-39,1.8-39,4.1v1"/>
	<path class="st6" d="M81.5,22.4c0-2.3-17.4-4.1-39-4.1s-39,1.8-39,4.1"/>
	<path class="st5" d="M4.4,25.8l-0.8-2.4c0-2.3,17.4-4.1,39-4.1s39,1.8,39,4.1l-0.8,2.4"/>
	<path class="st1" d="M41.8,12.6v2.5c-0.4,0-0.7,0-1.1,0v-3.5L41.8,12.6z"/>
	<path class="st1" d="M44.4,11.6v3.5c-0.4,0-0.7,0-1.1,0v-2.5L44.4,11.6z"/>
	<path class="st1" d="M44.4,11.6l-1.1,1h-1.5l-1.1-1C41.8,11.2,43.2,11.2,44.4,11.6z"/>
	<polyline class="st5" points="80.6,25.7 80.6,43.7 4.4,43.7 4.4,25.8 	"/>
	<path class="st5" d="M53.2,8.1v3.5h0c1.5,0.1,3,0.1,4.5,0.2v3.7c1.5,0.1,2.9,0.1,4.3,0.2v-3.6c1.4,0.1,2.8,0.2,4.1,0.4V16
		c1.4,0.1,2.6,0.2,3.8,0.4v-3.5c1.2,0.2,2.4,0.3,3.4,0.5v3.4c1.1,0.2,2,0.3,2.9,0.5v-3.3c0.8,0.2,1.6,0.4,2.2,0.6v3.2
		c0.6,0.2,1,0.4,1.4,0.5v-3.1c0.6,0.3,1.3,0.7,1.3,1.1v5.3"/>
	<path class="st5" d="M31.9,8.1v3.5h0c-1.5,0.1-3,0.1-4.5,0.2v3.7c-1.5,0.1-2.9,0.1-4.3,0.2v-3.6c-1.4,0.1-2.8,0.2-4.1,0.4V16
		c-1.4,0.1-2.6,0.2-3.8,0.4v-3.5c-1.2,0.2-2.4,0.3-3.4,0.5v3.4c-1.1,0.2-2,0.3-2.9,0.5v-3.3c-0.8,0.2-1.6,0.4-2.2,0.6v3.2
		c-0.6,0.2-1,0.4-1.4,0.5v-3.1C4.7,15.7,4,16.1,4,16.5v5.3"/>
	<path class="st7" d="M34.3,7v1.1h-0.9V7C33.7,7,34,7,34.3,7z"/>
	<path class="st7" d="M36.8,7v1.2h-0.9V7C36.2,7,36.5,7,36.8,7z"/>
	<path class="st7" d="M39.3,6.9v1.2h-0.9V6.9C38.7,6.9,39,6.9,39.3,6.9z"/>
	<rect x="40.8" y="6.9" class="st7" width="0.9" height="1.2"/>
	<rect x="43.3" y="6.9" class="st7" width="0.9" height="1.2"/>
	<path class="st7" d="M46.7,6.9v1.2h-0.9V6.9C46.1,6.9,46.4,6.9,46.7,6.9z"/>
	<path class="st7" d="M49.2,7v1.1h-0.9V7C48.5,7,48.9,7,49.2,7z"/>
	<path class="st7" d="M51.6,7v1.1h-0.9V7C51,7,51.3,7,51.6,7z"/>
	<path class="st7" d="M31.9,7.1v1.1h-0.7l-0.7-1C30.9,7.1,31.4,7.1,31.9,7.1z"/>
	<path class="st7" d="M54.6,7.1l-0.7,1h-0.7V7.1C53.6,7.1,54.1,7.1,54.6,7.1z"/>
	<path class="st5" d="M50.5,1.6v2.6h-1.2V1.5c-0.8,0-1.6,0-2.5,0v2.7h-1.2V1.5c-0.8,0-1.6,0-2.5,0v2.7h-1.2V1.5c-0.8,0-1.7,0-2.5,0
		v2.7h-1.2V1.5c-0.8,0-1.7,0-2.5,0v2.7h-1.2V1.6c-1.3,0-2.7,0.2-4.1,0.3v5.3c0.5,0,1,0,1.4,0V6.9c0-0.4,0.3-0.8,0.8-0.8
		c0.4,0,0.8,0.3,0.8,0.8V7c0.3,0,0.6,0,0.9,0V6.9c0-0.4,0.3-0.8,0.8-0.8c0.4,0,0.8,0.3,0.8,0.8V7c0.3,0,0.6,0,0.9,0V6.8
		c0-0.4,0.3-0.8,0.8-0.8c0.4,0,0.8,0.3,0.8,0.8v0.1c0.3,0,0.6,0,0.9,0V6.8C39.3,6.4,39.6,6,40,6c0.4,0,0.8,0.3,0.8,0.8v0.1h0.9V6.8
		c0-0.4,0.3-0.8,0.8-0.8c0.4,0,0.8,0.3,0.8,0.8v0.1h0.9V6.8C44.2,6.4,44.6,6,45,6c0.4,0,0.8,0.3,0.8,0.8v0.2c0.3,0,0.6,0,0.9,0V6.8
		C46.7,6.4,47,6,47.5,6c0.4,0,0.8,0.3,0.8,0.8V7c0.3,0,0.6,0,0.9,0V6.9c0-0.4,0.3-0.8,0.8-0.8c0.4,0,0.8,0.3,0.8,0.8V7
		c0.3,0,0.6,0,0.9,0V6.9c0-0.4,0.3-0.8,0.8-0.8c0.4,0,0.8,0.3,0.8,0.8v0.2c0.5,0,1,0,1.4,0V1.8C53.2,1.8,51.9,1.6,50.5,1.6z"/>
	<g>
		<path class="st8" d="M34.5,1.6c-1.3,0-2.7,0.2-4.1,0.3"/>
		<line class="st8" x1="35.7" y1="4.2" x2="34.5" y2="4.2"/>
		<path class="st8" d="M38.2,1.5c-0.8,0-1.7,0-2.5,0"/>
		<line class="st8" x1="39.4" y1="4.2" x2="38.2" y2="4.2"/>
		<path class="st8" d="M41.9,1.5c-0.8,0-1.7,0-2.5,0"/>
		<line class="st8" x1="43.1" y1="4.2" x2="41.9" y2="4.2"/>
		<path class="st8" d="M45.6,1.5c-0.8,0-1.6,0-2.5,0"/>
		<line class="st8" x1="46.8" y1="4.2" x2="45.6" y2="4.2"/>
		<path class="st8" d="M49.3,1.5c-0.8,0-1.6,0-2.5,0"/>
		<line class="st8" x1="50.5" y1="4.2" x2="49.3" y2="4.2"/>
		<path class="st8" d="M54.6,1.8c-1.4-0.1-2.7-0.2-4.1-0.3"/>
	</g>
	<circle cx="42.5" cy="9.1" r="0.5"/>
	<rect x="41.8" y="12.6" class="st4" width="1.5" height="2.5"/>
	<g>
		<g>
			<g>
				<path class="st7" d="M40.8,21.5c0.4,0,0.6,0,0.9,0c0,0.6,0,0.9,0,1.5c-0.4,0-0.6,0-0.9,0C40.8,22.5,40.8,22.1,40.8,21.5z"/>
				<path class="st5" d="M42.5,20.7L42.5,20.7c-0.4,0-0.8,0.4-0.8,0.8c0,0.6,0,0.9,0,1.5"/>
				<path class="st5" d="M40.8,23c0-0.6,0-0.9,0-1.5c0-0.5-0.4-0.8-0.8-0.8l0,0c-0.4,0-0.8,0.4-0.8,0.8c0,0.6,0,0.9,0,1.5"/>
				<path class="st7" d="M35.8,21.6c0.4,0,0.6,0,0.9,0c0,0.6,0,0.9,0,1.5c-0.4,0-0.6,0-0.9,0C35.8,22.5,35.8,22.2,35.8,21.6z"/>
				<path class="st7" d="M38.3,21.6c0.4,0,0.6,0,0.9,0c0,0.6,0,0.9,0,1.5c-0.4,0-0.6,0-0.9,0C38.3,22.5,38.3,22.2,38.3,21.6z"/>
				<path class="st5" d="M38.3,23.1c0-0.6,0-0.9,0-1.5c0-0.5-0.4-0.8-0.8-0.8l0,0c-0.4,0-0.8,0.4-0.8,0.9c0,0.6,0,0.9,0,1.5"/>
				<path class="st5" d="M35.8,23.1c0-0.6,0-0.9,0-1.5c0-0.5-0.4-0.8-0.8-0.8l0,0c-0.4,0-0.8,0.4-0.8,0.9c0,0.6,0,0.9,0,1.5"/>
				<path class="st7" d="M30.8,21.7c0.4,0,0.6,0,0.9,0c0,0.6,0,0.9,0,1.5c-0.4,0-0.6,0-0.9,0C30.8,22.6,30.8,22.3,30.8,21.7z"/>
				<path class="st7" d="M33.3,21.6c0.4,0,0.6,0,0.9,0c0,0.6,0,0.9,0,1.5c-0.4,0-0.6,0-0.9,0C33.3,22.6,33.3,22.2,33.3,21.6z"/>
				<path class="st5" d="M33.3,23.1c0-0.6,0-0.9,0-1.5c0-0.5-0.4-0.8-0.8-0.8l0,0c-0.4,0-0.8,0.4-0.8,0.9c0,0.6,0,0.9,0,1.5"/>
				<path class="st5" d="M30.8,23.2c0-0.6,0-0.9,0-1.5c0-0.5-0.3-0.8-0.8-0.8l0,0c-0.4,0-0.8,0.4-0.8,0.9c0,0.6,0,0.9,0,1.5"/>
				<path class="st7" d="M26,21.9c0.4,0,0.5,0,0.9,0c0,0.6,0,0.9,0,1.5c-0.4,0-0.5,0-0.9,0C26,22.8,26,22.5,26,21.9z"/>
				<path class="st7" d="M28.4,21.8c0.4,0,0.5,0,0.9,0c0,0.6,0,0.9,0,1.5c-0.4,0-0.5,0-0.9,0C28.4,22.7,28.4,22.4,28.4,21.8z"/>
				<path class="st5" d="M28.4,23.3c0-0.6,0-0.9,0-1.5c0-0.5-0.3-0.8-0.8-0.8l0,0c-0.4,0-0.7,0.4-0.7,0.9c0,0.6,0,0.9,0,1.5"/>
				<path class="st5" d="M26,23.4c0-0.6,0-0.9,0-1.5c0-0.5-0.3-0.8-0.8-0.8l0,0c-0.4,0-0.7,0.4-0.7,0.9c0,0.6,0,0.9,0,1.5"/>
				<path class="st7" d="M21.4,22.2c0.3,0,0.5,0,0.9-0.1c0,0.6,0,0.9,0,1.5c-0.3,0-0.5,0-0.8,0.1C21.4,23,21.4,22.7,21.4,22.2z"/>
				<path class="st7" d="M23.6,22c0.3,0,0.5,0,0.9,0c0,0.6,0,0.9,0,1.5c-0.4,0-0.5,0-0.9,0C23.7,22.9,23.7,22.6,23.6,22z"/>
				<path class="st5" d="M23.7,23.5c0-0.6,0-0.9,0-1.5c0-0.5-0.3-0.8-0.7-0.8l0,0c-0.4,0-0.7,0.4-0.7,0.9c0,0.6,0,0.9,0,1.5"/>
				<path class="st5" d="M21.4,23.6c0-0.6,0-0.9,0-1.5c0-0.5-0.3-0.8-0.7-0.8l0,0c-0.4,0-0.7,0.4-0.7,0.9c0,0.6,0,0.9,0,1.5"/>
				<path class="st7" d="M17,22.5c0.3,0,0.5,0,0.8-0.1c0,0.6,0,0.9,0,1.5c-0.3,0-0.5,0-0.8,0.1C17,23.3,17,23.1,17,22.5z"/>
				<path class="st7" d="M19.1,22.3c0.3,0,0.5,0,0.8-0.1c0,0.6,0,0.9,0,1.5c-0.3,0-0.5,0-0.8,0.1C19.2,23.2,19.1,22.9,19.1,22.3z"/>
				<path class="st5" d="M19.2,23.8c0-0.6,0-0.9,0-1.5c0-0.5-0.3-0.8-0.7-0.8l0,0c-0.4,0-0.7,0.4-0.7,0.9c0,0.6,0,0.9,0,1.5"/>
				<path class="st5" d="M17,23.9c0-0.6,0-0.9,0-1.5c0-0.5-0.3-0.8-0.7-0.8l0,0c-0.4,0-0.6,0.4-0.6,0.9c0,0.6,0,0.9,0,1.4"/>
				<path class="st7" d="M13,22.9c0.3,0,0.4-0.1,0.7-0.1c0,0.6,0,0.8,0,1.4c-0.3,0-0.4,0-0.7,0.1C13,23.7,13,23.5,13,22.9z"/>
				<path class="st7" d="M15,22.7c0.3,0,0.5,0,0.8-0.1c0,0.6,0,0.9,0,1.4c-0.3,0-0.5,0-0.8,0.1C15,23.5,15,23.3,15,22.7z"/>
				<path class="st5" d="M15,24.1c0-0.6,0-0.9,0-1.4c0-0.4-0.3-0.8-0.6-0.8l0,0c-0.3,0-0.6,0.4-0.6,0.9c0,0.6,0,0.8,0,1.4"/>
				<path class="st5" d="M13,24.3c0-0.6,0-0.9,0-1.4c0-0.4-0.3-0.8-0.6-0.7l0,0c-0.3,0-0.6,0.4-0.6,0.9c0,0.6,0,0.8,0,1.4"/>
				<path class="st7" d="M9.4,23.4c0.2,0,0.4-0.1,0.6-0.1c0,0.5,0,0.8,0,1.4c-0.3,0-0.4,0.1-0.6,0.1C9.5,24.2,9.5,23.9,9.4,23.4z"/>
				<path class="st7" d="M11.2,23.1c0.3,0,0.4-0.1,0.7-0.1c0,0.6,0,0.8,0,1.4c-0.3,0-0.4,0-0.7,0.1C11.2,24,11.2,23.7,11.2,23.1z"/>
				<path class="st5" d="M11.2,24.5c0-0.6,0-0.8,0-1.4c0-0.4-0.3-0.8-0.6-0.7l0,0c-0.3,0-0.5,0.5-0.5,0.9c0,0.5,0,0.8,0,1.4"/>
				<path class="st5" d="M9.5,24.8c0-0.6,0-0.8,0-1.4c0-0.4-0.2-0.7-0.5-0.7l0,0c-0.3,0.1-0.5,0.5-0.5,0.9c0,0.5,0,0.8,0,1.3"/>
				<path class="st7" d="M7.9,23.7c0.2,0,0.3-0.1,0.6-0.1c0,0.5,0,0.8,0,1.3C8.2,25,8.1,25,7.9,25C7.9,24.5,7.9,24.2,7.9,23.7z"/>
				<path class="st5" d="M7.9,25c0-0.6,0-0.8,0-1.3c0-0.4-0.2-0.7-0.5-0.7l0,0c-0.3,0.1-0.4,0.5-0.4,0.9c0,0.5,0,0.7,0,1.3"/>
				<path class="st7" d="M5.1,24.3c0.2-0.1,0.3-0.1,0.5-0.1c0,0.5,0,0.7,0,1.2c-0.2,0-0.3,0.1-0.5,0.1C5.1,25,5.1,24.8,5.1,24.3z"/>
				<path class="st7" d="M6.4,24c0.2,0,0.3-0.1,0.5-0.1c0,0.5,0,0.7,0,1.3c-0.2,0-0.3,0.1-0.5,0.1C6.4,24.7,6.4,24.5,6.4,24z"/>
				<path class="st5" d="M6.4,25.3c0-0.5,0-0.8,0-1.3c0-0.4-0.2-0.7-0.4-0.6l0,0c-0.2,0.1-0.4,0.5-0.4,0.8c0,0.5,0,0.7,0,1.2"/>
				<path class="st5" d="M5.1,25.6c0-0.5,0-0.7,0-1.2c0-0.4-0.2-0.7-0.4-0.6l0,0c-0.2,0.1-0.4,0.4-0.4,0.8c0,0.5,0,0.7,0,1.2"/>
			</g>
		</g>
		<g>
			<g>
				<path class="st7" d="M44.2,21.5c-0.4,0-0.6,0-0.9,0c0,0.6,0,0.9,0,1.5c0.4,0,0.6,0,0.9,0C44.2,22.5,44.2,22.1,44.2,21.5z"/>
				<path class="st5" d="M42.5,20.7L42.5,20.7c0.4,0,0.8,0.4,0.8,0.8c0,0.6,0,0.9,0,1.5"/>
				<path class="st5" d="M44.2,23c0-0.6,0-0.9,0-1.5c0-0.5,0.4-0.8,0.8-0.8l0,0c0.4,0,0.8,0.4,0.8,0.8c0,0.6,0,0.9,0,1.5"/>
				<path class="st7" d="M49.2,21.6c-0.4,0-0.6,0-0.9,0c0,0.6,0,0.9,0,1.5c0.4,0,0.6,0,0.9,0C49.2,22.5,49.2,22.2,49.2,21.6z"/>
				<path class="st7" d="M46.7,21.6c-0.4,0-0.6,0-0.9,0c0,0.6,0,0.9,0,1.5c0.4,0,0.6,0,0.9,0C46.7,22.5,46.7,22.2,46.7,21.6z"/>
				<path class="st5" d="M46.7,23.1c0-0.6,0-0.9,0-1.5c0-0.5,0.4-0.8,0.8-0.8l0,0c0.4,0,0.8,0.4,0.8,0.9c0,0.6,0,0.9,0,1.5"/>
				<path class="st5" d="M49.2,23.1c0-0.6,0-0.9,0-1.5c0-0.5,0.4-0.8,0.8-0.8l0,0c0.4,0,0.8,0.4,0.8,0.9c0,0.6,0,0.9,0,1.5"/>
				<path class="st7" d="M54.2,21.7c-0.4,0-0.6,0-0.9,0c0,0.6,0,0.9,0,1.5c0.4,0,0.6,0,0.9,0C54.2,22.6,54.2,22.3,54.2,21.7z"/>
				<path class="st7" d="M51.7,21.6c-0.4,0-0.6,0-0.9,0c0,0.6,0,0.9,0,1.5c0.4,0,0.6,0,0.9,0C51.7,22.6,51.7,22.2,51.7,21.6z"/>
				<path class="st5" d="M51.7,23.1c0-0.6,0-0.9,0-1.5c0-0.5,0.4-0.8,0.8-0.8l0,0c0.4,0,0.8,0.4,0.8,0.9c0,0.6,0,0.9,0,1.5"/>
				<path class="st5" d="M54.2,23.2c0-0.6,0-0.9,0-1.5c0-0.5,0.3-0.8,0.8-0.8l0,0c0.4,0,0.8,0.4,0.8,0.9c0,0.6,0,0.9,0,1.5"/>
				<path class="st7" d="M59,21.9c-0.4,0-0.5,0-0.9,0c0,0.6,0,0.9,0,1.5c0.4,0,0.5,0,0.9,0C59,22.8,59,22.5,59,21.9z"/>
				<path class="st7" d="M56.6,21.8c-0.4,0-0.5,0-0.9,0c0,0.6,0,0.9,0,1.5c0.4,0,0.5,0,0.9,0C56.6,22.7,56.6,22.4,56.6,21.8z"/>
				<path class="st5" d="M56.6,23.3c0-0.6,0-0.9,0-1.5c0-0.5,0.3-0.8,0.8-0.8l0,0c0.4,0,0.7,0.4,0.7,0.9c0,0.6,0,0.9,0,1.5"/>
				<path class="st5" d="M59,23.4c0-0.6,0-0.9,0-1.5c0-0.5,0.3-0.8,0.8-0.8l0,0c0.4,0,0.7,0.4,0.7,0.9c0,0.6,0,0.9,0,1.5"/>
				<path class="st7" d="M63.7,22.2c-0.3,0-0.5,0-0.9-0.1c0,0.6,0,0.9,0,1.5c0.3,0,0.5,0,0.8,0.1C63.7,23,63.7,22.7,63.7,22.2z"/>
				<path class="st7" d="M61.4,22c-0.3,0-0.5,0-0.9,0c0,0.6,0,0.9,0,1.5c0.4,0,0.5,0,0.9,0C61.4,22.9,61.4,22.6,61.4,22z"/>
				<path class="st5" d="M61.4,23.5c0-0.6,0-0.9,0-1.5c0-0.5,0.3-0.8,0.7-0.8l0,0c0.4,0,0.7,0.4,0.7,0.9c0,0.6,0,0.9,0,1.5"/>
				<path class="st5" d="M63.7,23.6c0-0.6,0-0.9,0-1.5c0-0.5,0.3-0.8,0.7-0.8l0,0c0.4,0,0.7,0.4,0.7,0.9c0,0.6,0,0.9,0,1.5"/>
				<path class="st7" d="M68,22.5c-0.3,0-0.5,0-0.8-0.1c0,0.6,0,0.9,0,1.5c0.3,0,0.5,0,0.8,0.1C68,23.3,68,23.1,68,22.5z"/>
				<path class="st7" d="M65.9,22.3c-0.3,0-0.5,0-0.8-0.1c0,0.6,0,0.9,0,1.5c0.3,0,0.5,0,0.8,0.1C65.9,23.2,65.9,22.9,65.9,22.3z"/>
				<path class="st5" d="M65.9,23.8c0-0.6,0-0.9,0-1.5c0-0.5,0.3-0.8,0.7-0.8l0,0c0.4,0,0.7,0.4,0.7,0.9c0,0.6,0,0.9,0,1.5"/>
				<path class="st5" d="M68,23.9c0-0.6,0-0.9,0-1.5c0-0.5,0.3-0.8,0.7-0.8l0,0c0.4,0,0.6,0.4,0.6,0.9c0,0.6,0,0.9,0,1.4"/>
				<path class="st7" d="M72,22.9c-0.3,0-0.4-0.1-0.7-0.1c0,0.6,0,0.8,0,1.4c0.3,0,0.4,0,0.7,0.1C72,23.7,72,23.5,72,22.9z"/>
				<path class="st7" d="M70.1,22.7c-0.3,0-0.5,0-0.8-0.1c0,0.6,0,0.9,0,1.4c0.3,0,0.5,0,0.8,0.1C70.1,23.5,70.1,23.3,70.1,22.7z"/>
				<path class="st5" d="M70.1,24.1c0-0.6,0-0.9,0-1.4c0-0.4,0.3-0.8,0.6-0.8l0,0c0.3,0,0.6,0.4,0.6,0.9c0,0.6,0,0.8,0,1.4"/>
				<path class="st5" d="M72,24.3c0-0.6,0-0.9,0-1.4c0-0.4,0.3-0.8,0.6-0.7l0,0c0.3,0,0.6,0.4,0.6,0.9c0,0.6,0,0.8,0,1.4"/>
				<path class="st7" d="M75.6,23.4c-0.2,0-0.4-0.1-0.6-0.1c0,0.5,0,0.8,0,1.4c0.3,0,0.4,0.1,0.6,0.1C75.6,24.2,75.6,23.9,75.6,23.4
					z"/>
				<path class="st7" d="M73.9,23.1c-0.3,0-0.4-0.1-0.7-0.1c0,0.6,0,0.8,0,1.4c0.3,0,0.4,0,0.7,0.1C73.9,24,73.9,23.7,73.9,23.1z"/>
				<path class="st5" d="M73.8,24.5c0-0.6,0-0.8,0-1.4c0-0.4,0.3-0.8,0.6-0.7l0,0c0.3,0,0.5,0.5,0.5,0.9c0,0.5,0,0.8,0,1.4"/>
				<path class="st5" d="M75.6,24.8c0-0.6,0-0.8,0-1.4c0-0.4,0.2-0.7,0.5-0.7l0,0c0.3,0.1,0.5,0.5,0.5,0.9c0,0.5,0,0.8,0,1.3"/>
				<path class="st7" d="M77.2,23.7c-0.2,0-0.3-0.1-0.6-0.1c0,0.5,0,0.8,0,1.3c0.2,0,0.4,0.1,0.6,0.1C77.2,24.5,77.2,24.2,77.2,23.7
					z"/>
				<path class="st5" d="M77.2,25c0-0.6,0-0.8,0-1.3c0-0.4,0.2-0.7,0.5-0.7l0,0c0.3,0.1,0.4,0.5,0.4,0.9c0,0.5,0,0.7,0,1.3"/>
				<path class="st7" d="M79.9,24.3c-0.2-0.1-0.3-0.1-0.5-0.1c0,0.5,0,0.7,0,1.2c0.2,0,0.3,0.1,0.5,0.1C79.9,25,79.9,24.8,79.9,24.3
					z"/>
				<path class="st7" d="M78.6,24c-0.2,0-0.3-0.1-0.5-0.1c0,0.5,0,0.7,0,1.3c0.2,0,0.3,0.1,0.5,0.1C78.6,24.7,78.6,24.5,78.6,24z"/>
				<path class="st5" d="M78.6,25.3c0-0.5,0-0.8,0-1.3c0-0.4,0.2-0.7,0.4-0.6l0,0c0.2,0.1,0.4,0.5,0.4,0.8c0,0.5,0,0.7,0,1.2"/>
				<path class="st5" d="M79.9,25.6c0-0.5,0-0.7,0-1.2c0-0.4,0.2-0.7,0.4-0.6l0,0c0.2,0.1,0.4,0.4,0.4,0.8c0,0.5,0,0.7,0,1.2"/>
			</g>
		</g>
	</g>
	<g>
		<path class="st9" d="M61.9,12.1v3.6c-1.4-0.1-2.8-0.2-4.3-0.2v-2.1L61.9,12.1z"/>
		<path class="st9" d="M69.9,12.9v3.5c-1.2-0.1-2.5-0.3-3.8-0.4v-2.1L69.9,12.9z"/>
		<path class="st9" d="M79.8,15.4v3.1c-0.4-0.2-0.8-0.4-1.4-0.5V16L79.8,15.4z"/>
		<path class="st9" d="M76.2,14.1v3.3c-0.8-0.2-1.8-0.3-2.9-0.5v-2.1L76.2,14.1z"/>
	</g>
	<g>
		<path class="st9" d="M23.1,12.1v3.6c1.4-0.1,2.8-0.2,4.3-0.2v-2.1L23.1,12.1z"/>
		<path class="st9" d="M15.1,12.9v3.5c1.2-0.1,2.5-0.3,3.8-0.4v-2.1L15.1,12.9z"/>
		<path class="st9" d="M5.3,15.4v3.1c0.4-0.2,0.8-0.4,1.4-0.5V16L5.3,15.4z"/>
		<path class="st9" d="M8.9,14.1v3.3c0.8-0.2,1.8-0.3,2.9-0.5v-2.1L8.9,14.1z"/>
	</g>
	<g>
		<g>
			<path class="st8" d="M79.8,15.4c0.6,0.3,1.3,0.7,1.3,1.1"/>
			<path class="st8" d="M76.2,14.1c0.8,0.2,1.6,0.4,2.2,0.6"/>
			<path class="st8" d="M69.9,12.9c1.2,0.2,2.4,0.3,3.4,0.5"/>
			<path class="st8" d="M61.9,12.1c1.4,0.1,2.8,0.2,4.1,0.4"/>
			<path class="st8" d="M53.2,11.6L53.2,11.6c1.5,0.1,3,0.1,4.5,0.2"/>
			<path class="st8" d="M5.3,15.4C4.7,15.7,4,16.1,4,16.5"/>
			<path class="st8" d="M8.9,14.1c-0.8,0.2-1.6,0.4-2.2,0.6"/>
			<path class="st8" d="M15.1,12.9c-1.2,0.2-2.4,0.3-3.4,0.5"/>
			<path class="st8" d="M23.1,12.1c-1.4,0.1-2.8,0.2-4.1,0.4"/>
			<path class="st8" d="M31.9,11.6L31.9,11.6c-1.5,0.1-3,0.1-4.5,0.2"/>
		</g>
		<g>
			<g>
				<path class="st8" d="M61.9,15.7c-1.4-0.1-2.8-0.2-4.3-0.2"/>
				<path class="st8" d="M69.9,16.4c-1.2-0.1-2.5-0.3-3.8-0.4"/>
				<path class="st8" d="M79.8,18.4c-0.4-0.2-0.8-0.4-1.4-0.5"/>
				<path class="st8" d="M76.2,17.4c-0.8-0.2-1.8-0.3-2.9-0.5"/>
			</g>
			<g>
				<path class="st8" d="M23.1,15.7c1.4-0.1,2.8-0.2,4.3-0.2"/>
				<path class="st8" d="M15.1,16.4c1.2-0.1,2.5-0.3,3.8-0.4"/>
				<path class="st8" d="M5.3,18.4c0.4-0.2,0.8-0.4,1.4-0.5"/>
				<path class="st8" d="M8.9,17.4c0.8-0.2,1.8-0.3,2.9-0.5"/>
			</g>
		</g>
	</g>
	<g>
		<path class="st0" d="M33.6,32.5v11.2h4.6v-6.3l0.5-0.3c1.1-0.7,2.4-1.1,3.8-1.1c1.3,0,2.6,0.4,3.8,1.1l0.5,0.3v6.3h4.6V32.5H33.6z
			"/>
		<g>
			<path class="st0" d="M52.2,28.8v3.7h-1.5v-0.9c0-0.4-0.3-0.8-0.8-0.8c-0.4,0-0.8,0.3-0.8,0.8h-0.9c0-0.4-0.3-0.8-0.8-0.8
				c-0.4,0-0.8,0.3-0.8,0.8h-0.9c0-0.4-0.3-0.8-0.8-0.8c-0.4,0-0.8,0.3-0.8,0.8h-0.9c0-0.4-0.3-0.8-0.8-0.8c-0.4,0-0.8,0.3-0.8,0.8
				h-0.9c0-0.4-0.3-0.8-0.8-0.8c-0.4,0-0.8,0.3-0.8,0.8h-0.9c0-0.4-0.3-0.8-0.8-0.8c-0.4,0-0.8,0.3-0.8,0.8h-0.9
				c0-0.4-0.3-0.8-0.8-0.8c-0.4,0-0.8,0.3-0.8,0.8v0.9h-1.5v-3.7H52.2z"/>
			<rect x="48.2" y="31.6" class="st4" width="0.9" height="0.9"/>
			<rect x="43.3" y="31.6" class="st4" width="0.9" height="0.9"/>
			<rect x="45.8" y="31.6" class="st4" width="0.9" height="0.9"/>
			<rect x="40.8" y="31.6" class="st4" width="0.9" height="0.9"/>
			<rect x="35.9" y="31.6" class="st4" width="0.9" height="0.9"/>
			<rect x="38.4" y="31.6" class="st4" width="0.9" height="0.9"/>
			<rect x="48.2" y="28.8" transform="matrix(-1 -1.224647e-16 1.224647e-16 -1 97.386 58.7178)" width="0.9" height="1.2"/>
			<rect x="43.3" y="28.8" transform="matrix(-1 -1.224647e-16 1.224647e-16 -1 87.5107 58.7178)" width="0.9" height="1.2"/>
			<rect x="45.8" y="28.8" transform="matrix(-1 -1.224647e-16 1.224647e-16 -1 92.4484 58.7178)" width="0.9" height="1.2"/>
			<rect x="40.8" y="28.8" transform="matrix(-1 -1.224647e-16 1.224647e-16 -1 82.5731 58.7178)" width="0.9" height="1.2"/>
			<rect x="35.9" y="28.8" transform="matrix(-1 -1.224647e-16 1.224647e-16 -1 72.6978 58.7178)" width="0.9" height="1.2"/>
			<rect x="38.4" y="28.8" transform="matrix(-1 -1.224647e-16 1.224647e-16 -1 77.6354 58.7178)" width="0.9" height="1.2"/>
			<polygon class="st1" points="53,28.8 32.1,28.8 33.7,27.4 51.3,27.4 			"/>
			<path class="st1" d="M35.9,31.6v0.9h-1.5v-0.9c0-0.4,0.3-0.8,0.8-0.8C35.5,30.9,35.9,31.2,35.9,31.6z"/>
			<path class="st1" d="M38.4,31.6v0.9h-1.5v-0.9c0-0.4,0.3-0.8,0.8-0.8C38,30.9,38.4,31.2,38.4,31.6z"/>
			<path class="st1" d="M40.8,31.6v0.9h-1.5v-0.9c0-0.4,0.3-0.8,0.8-0.8C40.5,30.9,40.8,31.2,40.8,31.6z"/>
			<path class="st1" d="M43.3,31.6v0.9h-1.5v-0.9c0-0.4,0.3-0.8,0.8-0.8C42.9,30.9,43.3,31.2,43.3,31.6z"/>
			<path class="st1" d="M45.8,31.6v0.9h-1.5v-0.9c0-0.4,0.3-0.8,0.8-0.8C45.4,30.9,45.8,31.2,45.8,31.6z"/>
			<path class="st1" d="M48.2,31.6v0.9h-1.5v-0.9c0-0.4,0.3-0.8,0.8-0.8C47.9,30.9,48.2,31.2,48.2,31.6z"/>
			<path class="st1" d="M50.7,31.6v0.9h-1.5v-0.9c0-0.4,0.3-0.8,0.8-0.8C50.4,30.9,50.7,31.2,50.7,31.6z"/>
		</g>
		<line class="st10" x1="43" y1="34.8" x2="42.1" y2="34.8"/>
		<line class="st10" x1="46.7" y1="34.2" x2="45.8" y2="34.2"/>
		<line class="st10" x1="51.4" y1="35.7" x2="50.5" y2="35.7"/>
		<line class="st10" x1="50" y1="42.3" x2="49.1" y2="42.3"/>
		<line class="st10" x1="34.5" y1="38.3" x2="33.6" y2="38.3"/>
		<line class="st10" x1="37.3" y1="40.1" x2="36.3" y2="40.1"/>
		<line class="st10" x1="33.7" y1="29.6" x2="32.8" y2="29.6"/>
		<line class="st10" x1="52.2" y1="30.6" x2="51.3" y2="30.6"/>
		<line class="st10" x1="34.5" y1="41.9" x2="33.6" y2="41.9"/>
		<g>
			<line class="st10" x1="38.8" y1="34.4" x2="36.8" y2="34.4"/>
			<line class="st10" x1="38.1" y1="34.4" x2="38.1" y2="35.1"/>
		</g>
		<g>
			<line class="st10" x1="48.8" y1="39" x2="46.8" y2="39"/>
			<line class="st10" x1="48.2" y1="39" x2="48.2" y2="38.3"/>
		</g>
		<line class="st10" x1="36.5" y1="42.9" x2="36.5" y2="43.7"/>
		<line class="st10" x1="48.8" y1="32.5" x2="48.8" y2="33.4"/>
	</g>
	<rect x="51.4" y="32.5" class="st0" width="30" height="1.3"/>
	<rect x="51.4" y="33.8" class="st0" width="30" height="9.9"/>
	<rect x="51.4" y="42.7" class="st1" width="30" height="1"/>
	<g>
		<rect x="56.8" y="38.1" width="1.3" height="1.7"/>
		<rect x="61.4" y="38.1" width="1.3" height="1.7"/>
		<rect x="65.9" y="38.1" width="1.3" height="1.7"/>
		<rect x="70.4" y="38.1" width="1.3" height="1.7"/>
		<rect x="75" y="38.1" width="1.3" height="1.7"/>
	</g>
	<rect x="3.5" y="32.5" class="st0" width="30" height="1.3"/>
	<rect x="3.5" y="33.8" class="st0" width="30" height="9.9"/>
	<rect x="3.5" y="42.7" class="st1" width="30" height="1"/>
	<g>
		<rect x="8.9" y="38.1" width="1.3" height="1.7"/>
		<rect x="13.5" y="38.1" width="1.3" height="1.7"/>
		<rect x="18" y="38.1" width="1.3" height="1.7"/>
		<rect x="22.5" y="38.1" width="1.3" height="1.7"/>
		<rect x="27.1" y="38.1" width="1.3" height="1.7"/>
	</g>
	<g>
		<line class="st10" x1="69" y1="41.3" x2="68" y2="41.3"/>
		<line class="st10" x1="74" y1="37.2" x2="73.1" y2="37.2"/>
		<line class="st10" x1="60.7" y1="40.4" x2="59.7" y2="40.4"/>
		<g>
			<line class="st10" x1="63.7" y1="36.6" x2="65.7" y2="36.6"/>
			<line class="st10" x1="64.4" y1="36.6" x2="64.4" y2="37.3"/>
		</g>
		<g>
			<line class="st10" x1="56.2" y1="36.4" x2="54.2" y2="36.4"/>
			<line class="st10" x1="55.5" y1="36.4" x2="55.5" y2="35.7"/>
		</g>
		<g>
			<line class="st10" x1="79.1" y1="40.8" x2="77.1" y2="40.8"/>
			<line class="st10" x1="78.4" y1="40.8" x2="78.4" y2="40.1"/>
		</g>
		<g>
			<g>
				<line class="st10" x1="51.4" y1="40.7" x2="54.9" y2="40.7"/>
				<line class="st10" x1="52.4" y1="40.7" x2="52.4" y2="40"/>
			</g>
			<line class="st10" x1="54.2" y1="40.7" x2="54.2" y2="41.4"/>
		</g>
		<g>
			<g>
				<line class="st10" x1="81.5" y1="36.6" x2="78.4" y2="36.6"/>
				<line class="st10" x1="80.8" y1="36.6" x2="80.8" y2="37.3"/>
			</g>
			<line class="st10" x1="79" y1="36.6" x2="79" y2="35.9"/>
		</g>
	</g>
	<line class="st10" x1="12.8" y1="40.4" x2="11.9" y2="40.4"/>
	<line class="st10" x1="20.9" y1="40.8" x2="20" y2="40.8"/>
	<line class="st10" x1="24.8" y1="36.9" x2="23.9" y2="36.9"/>
	<line class="st10" x1="33.6" y1="40.6" x2="32.7" y2="40.6"/>
	<line class="st10" x1="48" y1="11.3" x2="47.1" y2="11.3"/>
	<line class="st10" x1="38.7" y1="16.2" x2="37.7" y2="16.2"/>
	<line class="st10" x1="22.7" y1="17.6" x2="21.8" y2="17.6"/>
	<line class="st10" x1="64.8" y1="14.4" x2="65.9" y2="14.4"/>
	<line class="st10" x1="17.5" y1="17.6" x2="16.5" y2="17.7"/>
	<line class="st10" x1="11.9" y1="17.9" x2="10.9" y2="18.1"/>
	<line class="st10" x1="5.1" y1="19.7" x2="4" y2="20.2"/>
	<line class="st10" x1="5.5" y1="29" x2="4.4" y2="29.2"/>
	<line class="st10" x1="78.9" y1="29.7" x2="77.7" y2="29.6"/>
	<line class="st10" x1="79.8" y1="19.9" x2="81" y2="20.3"/>
	<line class="st10" x1="20" y1="14.8" x2="19.1" y2="14.8"/>
	<line class="st10" x1="56.7" y1="17.3" x2="57.6" y2="17.3"/>
	<line class="st10" x1="15.1" y1="14.2" x2="14.2" y2="14.3"/>
	<line class="st10" x1="54.6" y1="4.4" x2="53.7" y2="4.4"/>
	<line class="st10" x1="51.5" y1="2.9" x2="50.5" y2="2.8"/>
	<line class="st10" x1="31.3" y1="3.2" x2="30.4" y2="3.3"/>
	<line class="st10" x1="33.1" y1="4.7" x2="32.1" y2="4.8"/>
	<line class="st10" x1="44.3" y1="5.3" x2="43.4" y2="5.3"/>
	<g>
		<line class="st10" x1="15.4" y1="37" x2="17.4" y2="37"/>
		<line class="st10" x1="16" y1="37" x2="16" y2="37.6"/>
	</g>
	<g>
		<line class="st10" x1="5.5" y1="40.8" x2="3.5" y2="40.8"/>
		<line class="st10" x1="4.9" y1="40.8" x2="4.9" y2="40.1"/>
	</g>
	<g>
		<line class="st10" x1="32.2" y1="36.9" x2="30.2" y2="36.9"/>
		<line class="st10" x1="31.5" y1="36.9" x2="31.5" y2="36.3"/>
	</g>
	<g>
		<line class="st10" x1="32.6" y1="15.5" x2="30.6" y2="15.5"/>
		<line class="st10" x1="31.9" y1="15.5" x2="31.9" y2="14.8"/>
	</g>
	<g>
		<line class="st10" x1="35.7" y1="11.3" x2="37.7" y2="11.3"/>
		<line class="st10" x1="36.4" y1="11.3" x2="36.4" y2="12"/>
	</g>
	<g>
		<line class="st10" x1="29.1" y1="25.4" x2="31.1" y2="25.4"/>
		<line class="st10" x1="29.7" y1="25.4" x2="29.8" y2="26.1"/>
	</g>
	<g>
		<line class="st10" x1="19.7" y1="30.1" x2="17.7" y2="30.2"/>
		<line class="st10" x1="19.1" y1="30.1" x2="19.1" y2="29.4"/>
	</g>
	<g>
		<line class="st10" x1="67.4" y1="27.1" x2="65.4" y2="26.9"/>
		<line class="st10" x1="66.7" y1="27" x2="66.7" y2="27.7"/>
	</g>
	<g>
		<line class="st10" x1="56.2" y1="27.8" x2="54.2" y2="27.7"/>
		<line class="st10" x1="55.5" y1="27.8" x2="55.5" y2="27.1"/>
	</g>
	<g>
		<g>
			<line class="st10" x1="24.1" y1="41.1" x2="27.6" y2="41.1"/>
			<line class="st10" x1="25.1" y1="41.1" x2="25.1" y2="40.4"/>
		</g>
		<line class="st10" x1="26.9" y1="41.1" x2="26.9" y2="41.8"/>
	</g>
	<g>
		<g>
			<line class="st10" x1="44.2" y1="25.4" x2="40.8" y2="25.4"/>
			<line class="st10" x1="43.2" y1="25.4" x2="43.2" y2="26"/>
		</g>
		<line class="st10" x1="41.5" y1="25.4" x2="41.5" y2="24.6"/>
	</g>
	<g>
		<g>
			<line class="st10" x1="9" y1="36.4" x2="5.9" y2="36.4"/>
			<line class="st10" x1="8.3" y1="36.4" x2="8.3" y2="37.1"/>
		</g>
		<line class="st10" x1="6.5" y1="36.4" x2="6.5" y2="35.7"/>
	</g>
	<g>
		<g>
			<line class="st10" x1="53" y1="14.7" x2="49.9" y2="14.7"/>
			<line class="st10" x1="52.3" y1="14.7" x2="52.3" y2="15.4"/>
		</g>
		<line class="st10" x1="50.5" y1="14.7" x2="50.5" y2="14"/>
	</g>
	<g>
		<line class="st10" x1="51.4" y1="33.8" x2="51.4" y2="32.5"/>
		<line class="st10" x1="52.4" y1="33.8" x2="52.4" y2="32.5"/>
		<line class="st10" x1="53.5" y1="33.8" x2="53.5" y2="32.5"/>
		<line class="st10" x1="54.5" y1="33.8" x2="54.5" y2="32.5"/>
		<line class="st10" x1="55.5" y1="33.8" x2="55.5" y2="32.5"/>
		<line class="st10" x1="56.5" y1="33.8" x2="56.5" y2="32.5"/>
		<line class="st10" x1="57.5" y1="33.8" x2="57.5" y2="32.5"/>
		<line class="st10" x1="58.5" y1="33.8" x2="58.5" y2="32.5"/>
		<line class="st10" x1="59.5" y1="33.8" x2="59.5" y2="32.5"/>
		<line class="st10" x1="60.5" y1="33.8" x2="60.5" y2="32.5"/>
		<line class="st10" x1="61.5" y1="33.8" x2="61.5" y2="32.5"/>
		<line class="st10" x1="62.5" y1="33.8" x2="62.5" y2="32.5"/>
		<line class="st10" x1="63.5" y1="33.8" x2="63.5" y2="32.5"/>
		<line class="st10" x1="64.5" y1="33.8" x2="64.5" y2="32.5"/>
		<line class="st10" x1="65.5" y1="33.8" x2="65.5" y2="32.5"/>
		<line class="st10" x1="66.5" y1="33.8" x2="66.5" y2="32.5"/>
		<line class="st10" x1="67.5" y1="33.8" x2="67.5" y2="32.5"/>
		<line class="st10" x1="68.5" y1="33.8" x2="68.5" y2="32.5"/>
		<line class="st10" x1="69.5" y1="33.8" x2="69.5" y2="32.5"/>
		<line class="st10" x1="70.5" y1="33.8" x2="70.5" y2="32.5"/>
		<line class="st10" x1="71.5" y1="33.8" x2="71.5" y2="32.5"/>
		<line class="st10" x1="72.5" y1="33.8" x2="72.5" y2="32.5"/>
		<line class="st10" x1="73.5" y1="33.8" x2="73.5" y2="32.5"/>
		<line class="st10" x1="74.5" y1="33.8" x2="74.5" y2="32.5"/>
		<line class="st10" x1="75.5" y1="33.8" x2="75.5" y2="32.5"/>
		<line class="st10" x1="76.5" y1="33.8" x2="76.5" y2="32.5"/>
		<line class="st10" x1="77.5" y1="33.8" x2="77.5" y2="32.5"/>
		<line class="st10" x1="78.5" y1="33.8" x2="78.5" y2="32.5"/>
		<line class="st10" x1="79.5" y1="33.8" x2="79.5" y2="32.5"/>
		<line class="st10" x1="80.5" y1="33.8" x2="80.5" y2="32.5"/>
		<line class="st10" x1="81.5" y1="33.8" x2="81.5" y2="32.5"/>
	</g>
	<g>
		<line class="st10" x1="3.5" y1="33.8" x2="3.5" y2="32.5"/>
		<line class="st10" x1="4.5" y1="33.8" x2="4.5" y2="32.5"/>
		<line class="st10" x1="5.5" y1="33.8" x2="5.5" y2="32.5"/>
		<line class="st10" x1="6.5" y1="33.8" x2="6.5" y2="32.5"/>
		<line class="st10" x1="7.5" y1="33.8" x2="7.5" y2="32.5"/>
		<line class="st10" x1="8.6" y1="33.8" x2="8.6" y2="32.5"/>
		<line class="st10" x1="9.6" y1="33.8" x2="9.6" y2="32.5"/>
		<line class="st10" x1="10.6" y1="33.8" x2="10.6" y2="32.5"/>
		<line class="st10" x1="11.6" y1="33.8" x2="11.6" y2="32.5"/>
		<line class="st10" x1="12.6" y1="33.8" x2="12.6" y2="32.5"/>
		<line class="st10" x1="13.6" y1="33.8" x2="13.6" y2="32.5"/>
		<line class="st10" x1="14.6" y1="33.8" x2="14.6" y2="32.5"/>
		<line class="st10" x1="15.6" y1="33.8" x2="15.6" y2="32.5"/>
		<line class="st10" x1="16.6" y1="33.8" x2="16.6" y2="32.5"/>
		<line class="st10" x1="17.6" y1="33.8" x2="17.6" y2="32.5"/>
		<line class="st10" x1="18.6" y1="33.8" x2="18.6" y2="32.5"/>
		<line class="st10" x1="19.6" y1="33.8" x2="19.6" y2="32.5"/>
		<line class="st10" x1="20.6" y1="33.8" x2="20.6" y2="32.5"/>
		<line class="st10" x1="21.6" y1="33.8" x2="21.6" y2="32.5"/>
		<line class="st10" x1="22.6" y1="33.8" x2="22.6" y2="32.5"/>
		<line class="st10" x1="23.6" y1="33.8" x2="23.6" y2="32.5"/>
		<line class="st10" x1="24.6" y1="33.8" x2="24.6" y2="32.5"/>
		<line class="st10" x1="25.6" y1="33.8" x2="25.6" y2="32.5"/>
		<line class="st10" x1="26.6" y1="33.8" x2="26.6" y2="32.5"/>
		<line class="st10" x1="27.6" y1="33.8" x2="27.6" y2="32.5"/>
		<line class="st10" x1="28.6" y1="33.8" x2="28.6" y2="32.5"/>
		<line class="st10" x1="29.6" y1="33.8" x2="29.6" y2="32.5"/>
		<line class="st10" x1="30.6" y1="33.8" x2="30.6" y2="32.5"/>
		<line class="st10" x1="31.6" y1="33.8" x2="31.6" y2="32.5"/>
		<line class="st10" x1="32.6" y1="33.8" x2="32.6" y2="32.5"/>
		<line class="st10" x1="33.6" y1="33.8" x2="33.6" y2="32.5"/>
	</g>
	<line class="st10" x1="13.8" y1="18.3" x2="13.8" y2="19.5"/>
	<line class="st10" x1="26.4" y1="15.6" x2="26.4" y2="16.9"/>
	<line class="st10" x1="61.2" y1="15.6" x2="61.2" y2="16.9"/>
	<line class="st10" x1="68.5" y1="17.8" x2="68.5" y2="19.1"/>
	<line class="st10" x1="75" y1="17.2" x2="75" y2="18.4"/>
	<line class="st10" x1="46.3" y1="17" x2="46.3" y2="18.3"/>
	<line class="st10" x1="50.1" y1="24.8" x2="51.3" y2="24.8"/>
	<line class="st10" x1="27.6" y1="31.2" x2="29" y2="31.2"/>
	<line class="st10" x1="69.3" y1="30.8" x2="70.6" y2="30.9"/>
	<line class="st10" x1="61.2" y1="29.3" x2="62.4" y2="29.4"/>
	<line class="st10" x1="13.4" y1="26.7" x2="14.7" y2="26.6"/>
	<line class="st10" x1="55.8" y1="11.7" x2="55.8" y2="13"/>
	<line class="st10" x1="71.2" y1="17.6" x2="72.3" y2="17.7"/>
	<line class="st6" x1="51.4" y1="33.8" x2="81.5" y2="33.8"/>
	<line class="st6" x1="3.5" y1="33.8" x2="33.6" y2="33.8"/>
	<line class="st6" x1="32.8" y1="28.8" x2="52.2" y2="28.8"/>
</g>
</svg>
