<?xml version="1.0" encoding="UTF-8" standalone="no"?>
<svg
   xmlns:dc="http://purl.org/dc/elements/1.1/"
   xmlns:cc="http://creativecommons.org/ns#"
   xmlns:rdf="http://www.w3.org/1999/02/22-rdf-syntax-ns#"
   xmlns:svg="http://www.w3.org/2000/svg"
   xmlns="http://www.w3.org/2000/svg"
   width="210mm"
   height="297mm"
   viewBox="0 0 210 297"
   version="1.1"
   id="svg8">
  <defs
     id="defs2" />
  <metadata
     id="metadata5">
    <rdf:RDF>
      <cc:Work
         rdf:about="">
        <dc:format>image/svg+xml</dc:format>
        <dc:type
           rdf:resource="http://purl.org/dc/dcmitype/StillImage" />
        <dc:title></dc:title>
      </cc:Work>
    </rdf:RDF>
  </metadata>
  <g
     id="layer1">
    <path
       style="fill:#a0a0a0;stroke:none;stroke-width:0.821451"
       d=""
       id="path14"
       transform="scale(0.26458333)" />
    <path
       style="fill:#a0a0a0;stroke:none;stroke-width:0.821451"
       d=""
       id="path16"
       transform="scale(0.26458333)" />
    <path
       style="fill:#a0a0a0;stroke:none;stroke-width:0.821451"
       d=""
       id="path20"
       transform="scale(0.26458333)" />
    <path
       style="fill:#a0a0a0;stroke:none;stroke-width:0.821451"
       d=""
       id="path22"
       transform="scale(0.26458333)" />
    <path
       style="fill:#a0a0a0;stroke:none;stroke-width:0.821451"
       d=""
       id="path26"
       transform="scale(0.26458333)" />
    <path
       style="fill:none;stroke:#000000;stroke-width:0.264583px;stroke-linecap:butt;stroke-linejoin:miter;stroke-opacity:1"
       d="M 93.605514,45.211111 71.97161,51.330513 61.449959,40.335953 51.874121,49.628132 62.395774,61.1663 l 0.118119,15.959444 -7.802328,0.02371 0.118119,13.524206 7.51867,-0.141829 -0.02371,20.026359 -12.838343,10.21429 8.464485,10.73417 11.821826,-8.86668 h 19.576737 l -0.14183,8.29894 13.643179,0.11812 -0.0237,-8.39335 21.96456,0.28366 8.29894,9.52841 11.37263,-9.83578 -9.22105,-9.52842 v -11.37263 l -13.52421,-0.30737 v 9.31588 l -47.028416,-0.0172 V 63.931552 l 32.362866,-8.657359 0.12131,-19.894091 -13.643156,0.05704 z"
       id="path28" />
    <path
       style="fill:none;stroke:#000000;stroke-width:0.264583px;stroke-linecap:butt;stroke-linejoin:miter;stroke-opacity:1"
       d="m 84.42244,73.107044 v 15.983154 l 15.85644,0.05394 V 73.134548 Z"
       id="path30" />
    <path
       style="fill:none;stroke:#000000;stroke-width:0.264583px;stroke-linecap:butt;stroke-linejoin:miter;stroke-opacity:1"
       d="m 121.89289,83.959866 v 10.243662 l 13.40651,-0.02371 0.28366,-9.888874 z"
       id="path30-2" />
    <path
       style="fill:#333333;stroke:none;stroke-width:2.11767"
       d="m 488.59444,481.35836 -14.40796,-16.47269 -20.29967,-1.33951 c -11.16483,-0.73673 -30.54391,-1.45145 -43.06462,-1.58825 l -22.76494,-0.24874 v 15.88251 15.88251 h -24.35318 -24.35318 v -15.88251 -15.88251 h -38.22021 -38.22021 l -21.18911,16.04669 c -16.27786,12.32735 -21.8384,15.50784 -23.9904,13.72182 -3.46402,-2.87489 -26.61685,-32.97271 -26.61685,-34.60094 0,-0.65051 10.48246,-9.5204 23.29435,-19.71086 l 23.29435,-18.52809 V 379.81994 341.00208 H 222.87914 208.05546 V 316.6489 292.29572 h 14.82368 14.82367 v -31.02379 -31.02379 l -19.38779,-21.01093 -19.38779,-21.01093 16.5614,-16.65911 16.56139,-16.6591 18.91608,19.98746 c 10.40385,10.99309 20.49052,19.9357 22.41483,19.87245 1.92431,-0.0632 21.12833,-5.15767 42.67561,-11.32092 l 39.17686,-11.20591 -0.75755,-18.32644 -0.75755,-18.32644 h 24.58132 24.58131 v 35.91832 35.91832 l -10.05892,2.91508 c -5.53241,1.60329 -33.16715,9.02558 -61.41054,16.49397 l -51.35162,13.57889 -0.002,89.47148 -0.002,89.47148 h 91.05973 91.05973 v -16.94135 -16.94134 h 23.29435 23.29435 v 21.43544 21.43541 l 17.04266,17.46039 17.04265,17.46039 -16.51324,14.48948 c -9.08227,7.96921 -18.04791,15.74662 -19.92361,17.28314 -2.97452,2.43663 -5.25182,0.68837 -17.81836,-13.67901 z"
       id="path1972"
       transform="scale(0.26458333)" />
    <path
       style="fill:#333333;stroke:none;stroke-width:2.11767"
       d="m 320.29187,306.06056 v -28.58852 h 28.58852 28.58852 v 28.58852 28.58852 h -28.58852 -28.58852 z"
       id="path1974"
       transform="scale(0.26458333)" />
    <path
       style="fill:#333333;stroke:none;stroke-width:2.11767"
       d="M 462.17564,336.76675 V 319.8254 h 24.35319 24.35318 v 16.94135 16.94134 h -24.35318 -24.35319 z"
       id="path1976"
       transform="scale(0.26458333)" />
  </g>
</svg>
