<svg xmlns="http://www.w3.org/2000/svg" viewBox="0 0 548.58 154.74"><defs><style>.cls-1{fill:#481f1d;}.cls-2{fill:#e17850;}.cls-3{fill:#692215;}.cls-4{fill:#a44532;}.cls-5{fill:#672114;}.cls-6{fill:#fff;}</style></defs><title>Color for dark bg</title><g id="Layer_2" data-name="Layer 2"><g id="Layer_2-2" data-name="Layer 2"><path class="cls-1" d="M17.39,117.89s5.2-2,8.74-2,9.47,2,9.47,2l3.15-10.19s-3.84-3.15-12.25-3.15c-9.36,0-13,3.15-13,3.15Z"/><path class="cls-1" d="M17.39,64.31s5.2-2,8.74-2,9.47,2,9.47,2l3.15-10.19S34.91,51,26.5,51c-9.36,0-13,3.16-13,3.16Z"/><path class="cls-1" d="M105.25,64.31s5.21-2,8.74-2,9.48,2,9.48,2l3.15-10.19S122.78,51,114.36,51c-9.36,0-13,3.16-13,3.16Z"/><path class="cls-1" d="M105.25,117.89s5.21-2,8.74-2,9.48,2,9.48,2l3.15-10.19s-3.84-3.15-12.26-3.15c-9.36,0-13,3.15-13,3.15Z"/><path class="cls-2" d="M125.31,10.31S120.2,2.58,114.2,0c-6,2.58-11.11,10.31-11.11,10.31H81.56S76.45,2.58,70.45,0c-6,2.58-11.11,10.31-11.11,10.31H37.59S32.48,2.58,26.48,0c-6,2.58-11.1,10.31-11.1,10.31H0V154.74H140.9V10.31ZM38.75,142.43H13.5V107.67s4.37-3.09,12.63-3.09,12.62,3.09,12.62,3.09Zm0-53.56H13.5V54.12S17.87,51,26.13,51s12.62,3.09,12.62,3.09Zm0-45.3H13.5V24.8c0-1.36,1.4-6,4.49-10.58a44.36,44.36,0,0,1,8.14-8.6,44.69,44.69,0,0,1,8.14,8.6c3.08,4.6,4.48,9.22,4.48,10.58Zm43.66,98.86H57.17V70.15c0-1.35,1.4-6,4.48-10.58A44.36,44.36,0,0,1,69.79,51a44.36,44.36,0,0,1,8.14,8.6c3.08,4.6,4.48,9.23,4.48,10.58Zm0-98.86H57.17V24.8c0-1.36,1.4-6,4.48-10.58a44.36,44.36,0,0,1,8.14-8.6,44.36,44.36,0,0,1,8.14,8.6c3.08,4.6,4.48,9.22,4.48,10.58Zm44.2,98.86H101.37V107.67s4.36-3.09,12.62-3.09,12.62,3.09,12.62,3.09Zm0-53.56H101.37V54.12S105.73,51,114,51s12.62,3.09,12.62,3.09Zm0-45.3H101.37V24.8c0-1.36,1.4-6,4.48-10.58A44.36,44.36,0,0,1,114,5.62a44.36,44.36,0,0,1,8.14,8.6c3.08,4.6,4.48,9.22,4.48,10.58Z"/><path class="cls-3" d="M18,14.22c-3.09,4.6-4.49,9.22-4.49,10.58V43.57h3.18V29.14c0-1.84,1.9-9.57,9.45-13.78V5.62A44.36,44.36,0,0,0,18,14.22Z"/><path class="cls-4" d="M34.27,14.22c3.08,4.6,4.48,9.22,4.48,10.58V43.57H35.57V29.14c0-1.84-1.9-9.57-9.44-13.78V5.62A44.36,44.36,0,0,1,34.27,14.22Z"/><path class="cls-3" d="M61.65,14.22c-3.08,4.6-4.48,9.22-4.48,10.58V43.57h3.18V29.14c0-1.84,1.9-9.57,9.44-13.78V5.62A44.36,44.36,0,0,0,61.65,14.22Z"/><path class="cls-4" d="M77.93,14.22c3.08,4.6,4.48,9.22,4.48,10.58V43.57H79.24V29.14c0-1.84-1.9-9.57-9.45-13.78V5.62A44.36,44.36,0,0,1,77.93,14.22Z"/><path class="cls-3" d="M61.65,59.57c-3.08,4.6-4.48,9.23-4.48,10.58v72.28h3.18V74.49c0-1.84,1.9-9.56,9.44-13.78V51A44.36,44.36,0,0,0,61.65,59.57Z"/><path class="cls-4" d="M77.93,59.57c3.08,4.6,4.48,9.23,4.48,10.58v72.28H79.24V74.49c0-1.84-1.9-9.56-9.45-13.78V51A44.36,44.36,0,0,1,77.93,59.57Z"/><path class="cls-3" d="M105.85,14.22c-3.08,4.6-4.48,9.22-4.48,10.58V43.57h3.17V29.14c0-1.84,1.9-9.57,9.45-13.78V5.62A44.36,44.36,0,0,0,105.85,14.22Z"/><path class="cls-4" d="M122.13,14.22c3.08,4.6,4.48,9.22,4.48,10.58V43.57h-3.18V29.14c0-1.84-1.9-9.57-9.44-13.78V5.62A44.36,44.36,0,0,1,122.13,14.22Z"/><polygon class="cls-5" points="17.39 88.88 17.39 64.31 13.5 54.13 13.5 88.88 17.39 88.88"/><polygon class="cls-4" points="35.6 88.87 35.6 64.31 38.75 54.12 38.75 88.87 35.6 88.87"/><polygon class="cls-5" points="17.39 142.46 17.39 117.89 13.5 107.7 13.5 142.46 17.39 142.46"/><polygon class="cls-4" points="35.6 142.45 35.6 117.89 38.75 107.7 38.75 142.45 35.6 142.45"/><polygon class="cls-5" points="105.25 88.88 105.25 64.31 101.36 54.13 101.36 88.88 105.25 88.88"/><polygon class="cls-4" points="123.47 88.87 123.47 64.31 126.62 54.12 126.62 88.87 123.47 88.87"/><polygon class="cls-5" points="105.25 142.46 105.25 117.89 101.36 107.7 101.36 142.46 105.25 142.46"/><polygon class="cls-4" points="123.47 142.45 123.47 117.89 126.62 107.7 126.62 142.45 123.47 142.45"/><path class="cls-6" d="M168.58,76.13V37.28h31.85v7.64h-23v5.59a42.35,42.35,0,0,1,10.08,3.69,32.47,32.47,0,0,1,7.84,5.68,27.62,27.62,0,0,1,8.06,16.25Zm21.86-7.64a21.55,21.55,0,0,0-5.4-5.42,27.32,27.32,0,0,0-7.59-3.68v9.1Z"/><path class="cls-6" d="M220.8,61a27.74,27.74,0,0,0-1.29,5.17,37.6,37.6,0,0,0-.38,5.5c0,.69,0,1.41.09,2.17s.14,1.54.23,2.33H211.6a20.51,20.51,0,0,1-.16-2.11c0-.72,0-1.52,0-2.39A40.33,40.33,0,0,1,218,49.53h-5.09V43h30.57V76.13h-7.72V61ZM227,49.53A29.46,29.46,0,0,0,225.24,52c-.52.81-1,1.62-1.48,2.41h12V49.53Z"/><path class="cls-6" d="M274.67,49.53h-9.79a39.88,39.88,0,0,0-6.68,22.1c0,.69,0,1.41.07,2.17s.1,1.54.19,2.33h-8.11c-.08-.68-.14-1.39-.16-2.11s0-1.52,0-2.39a40.13,40.13,0,0,1,6.61-22.1h-5.12V43h30.81V76.13h-7.79Z"/><path class="cls-6" d="M308.51,49.63v26.5H301V49.63H290.89v-6.5h27.67v6.5Z"/><path class="cls-6" d="M327.06,76V43h7.56V56.91a50.82,50.82,0,0,1,10.43-9.29,36.36,36.36,0,0,1,12.06-5.17V76h-7.56V52.63a32.45,32.45,0,0,0-6,4.61,35.07,35.07,0,0,0-4.81,5.82,28.7,28.7,0,0,0-3.15,6.45,18,18,0,0,0-1,6.53Z"/><path class="cls-6" d="M365,76.13v-33h7.56V57A50.56,50.56,0,0,1,383,47.71a36.36,36.36,0,0,1,12.06-5.17V76.13H387.5V52.72a32.12,32.12,0,0,0-6,4.61,35.07,35.07,0,0,0-4.81,5.82,28.7,28.7,0,0,0-3.15,6.45,18,18,0,0,0-1,6.53Zm22.61-45v6.5H372.57v-6.5Z"/><path class="cls-6" d="M434.13,50a33.71,33.71,0,0,0-13.55,7.48,27.26,27.26,0,0,0-7.94,12.19h21.49v6.5H403.9a31.74,31.74,0,0,1,9-20.91,40.86,40.86,0,0,1,21.24-12.09Z"/><path class="cls-6" d="M449.69,56.25a20.37,20.37,0,0,0,4.71-2.06A22.2,22.2,0,0,0,458.53,51a21.24,21.24,0,0,0,3.15-3.82,13,13,0,0,0,1.81-4.09h8.44a16.57,16.57,0,0,1-1.91,5,23.79,23.79,0,0,1-3.47,4.64,28.75,28.75,0,0,1-4.65,3.93,27.52,27.52,0,0,1-5.34,2.84,21.28,21.28,0,0,1,5.59,2.66,24,24,0,0,1,4.59,3.95,24.36,24.36,0,0,1,3.38,4.8,17,17,0,0,1,1.81,5.17h-8.37a15.89,15.89,0,0,0-1.78-4.31,17.47,17.47,0,0,0-3-3.71,22.34,22.34,0,0,0-4.1-3,20.29,20.29,0,0,0-5-2v13h-7.5v-33h7.5Z"/><path class="cls-6" d="M478.1,73.58a36.45,36.45,0,0,1,3.62-14.95,44,44,0,0,1,9.56-13L494,43.13l2.75,2.55a43.91,43.91,0,0,1,9.62,13A38.84,38.84,0,0,1,509,65.94a34.9,34.9,0,0,1,1,7.64l.12,3.36H478Zm24-3.14A31.5,31.5,0,0,0,494,52.94a32.74,32.74,0,0,0-8.12,17.5Z"/><path class="cls-6" d="M547.26,69.63v6.5h-29q.38-11.65,9-20.91a40,40,0,0,1,21.31-12.09V50a37.22,37.22,0,0,0-8.47,3.63,36.49,36.49,0,0,0-6.34,4.77h12.49v6.5H529A12.57,12.57,0,0,0,527,69.63Z"/><path class="cls-6" d="M195.56,132.33V114.45H177.45v17.88h-8.87V93.48h8.87v13.33h18.11V93.48h8.87v38.85Z"/><path class="cls-6" d="M222.17,117.16a28.42,28.42,0,0,0-1.25,5.17,39,39,0,0,0-.37,5.5c0,.69,0,1.41.09,2.17s.14,1.54.22,2.33h-7.62c-.08-.69-.14-1.39-.16-2.11s0-1.52,0-2.39a41.3,41.3,0,0,1,6.38-22.11h-4.94v-6.5h29.67v33.11h-7.49V117.16Zm6-11.44c-.62.84-1.19,1.66-1.69,2.47s-1,1.62-1.43,2.41h11.62v-4.88Z"/><path class="cls-6" d="M281.43,106.16a33.68,33.68,0,0,0-13.56,7.48,27.24,27.24,0,0,0-7.93,12.19h21.49v6.5H251.19a31.73,31.73,0,0,1,9-20.92,40.88,40.88,0,0,1,21.24-12.08Z"/><path class="cls-6" d="M312.79,105.72h-9.44a41,41,0,0,0-6.43,22.11c0,.69,0,1.41.06,2.17s.1,1.54.19,2.33h-7.81c-.08-.69-.14-1.39-.16-2.11s0-1.52,0-2.39a41.37,41.37,0,0,1,6.37-22.11h-4.93v-6.5h29.67v33.11h-7.49Z"/><path class="cls-6" d="M357.43,125.83v6.5h-29q.38-11.66,9-20.92a40.06,40.06,0,0,1,21.3-12.08v6.83a35.84,35.84,0,0,0-14.8,8.4h12.49v6.5h-17.3a12.57,12.57,0,0,0-1.94,4.77Z"/><path class="cls-6" d="M366.05,132.33a20.72,20.72,0,0,1-.16-2.11c0-.73,0-1.52,0-2.39a41.29,41.29,0,0,1,6.37-22.11h-4.94v-6.5H397v33.11Zm23.42-6.5V105.72H380a40.37,40.37,0,0,0-6.38,20.11Z"/><path class="cls-6" d="M405.51,132.33v-33h7.56V113.2a50.57,50.57,0,0,1,10.44-9.29,36.45,36.45,0,0,1,12.05-5.18v33.6H428V108.92a32.06,32.06,0,0,0-6,4.61,33.73,33.73,0,0,0-4.81,5.82,28.33,28.33,0,0,0-3.16,6.45,18.17,18.17,0,0,0-1,6.53Z"/><path class="cls-6" d="M472.74,125.83v6.5h-29q.38-11.66,9-20.92a40.05,40.05,0,0,1,21.31-12.08v6.83a35.8,35.8,0,0,0-14.81,8.4h12.49v6.5h-17.3a12.57,12.57,0,0,0-1.94,4.77Z"/></g></g></svg>