<svg xmlns="http://www.w3.org/2000/svg" viewBox="0 0 548.58 154.74"><defs><style>.cls-1{fill:#474747;}</style></defs><title>Gray</title><g id="Layer_2" data-name="Layer 2"><g id="Layer_2-2" data-name="Layer 2"><path class="cls-1" d="M114.2,0c-6,2.58-11.11,10.31-11.11,10.31H81.56S76.45,2.58,70.45,0c-6,2.58-11.11,10.31-11.11,10.31H37.59S32.48,2.58,26.48,0c-6,2.58-11.1,10.31-11.1,10.31H0V154.74H140.9V10.31H125.31S120.2,2.58,114.2,0ZM114,62.36c3.54,0,9.48,2,9.48,2V88.87H105.25V64.31S110.46,62.36,114,62.36Zm-8.74,55.53s5.21-2,8.74-2,9.48,2,9.48,2v24.54H105.25ZM114,43.57h-9.45V29.14c0-1.84,1.9-9.57,9.45-13.78,7.54,4.21,9.44,11.94,9.44,13.78V43.57Zm-44.2,0H60.35V29.14c0-1.84,1.9-9.57,9.44-13.78,7.55,4.21,9.45,11.94,9.45,13.78V43.57ZM35.6,88.87H17.39V64.31s5.2-2,8.74-2,9.47,2,9.47,2Zm0,53.56H17.39V117.89s5.2-2,8.74-2,9.47,2,9.47,2ZM26.13,43.57H16.68V29.14c0-1.84,1.9-9.57,9.45-13.78,7.54,4.21,9.44,11.94,9.44,13.78V43.57Zm43.66,98.86H60.35V74.49c0-1.84,1.9-9.56,9.44-13.78,7.55,4.22,9.45,11.94,9.45,13.78v67.94Z"/><path class="cls-1" d="M200.75,67.28a27.91,27.91,0,0,0-5.38-7.4,32.47,32.47,0,0,0-7.84-5.68,42.35,42.35,0,0,0-10.08-3.69V44.92h23V37.28H168.58V76.13h34.85A27.74,27.74,0,0,0,200.75,67.28Zm-23.3,1.21v-9.1A27.32,27.32,0,0,1,185,63.07a21.55,21.55,0,0,1,5.4,5.42Z"/><path class="cls-1" d="M219.22,73.8c-.06-.76-.09-1.48-.09-2.17a37.6,37.6,0,0,1,.38-5.5A27.74,27.74,0,0,1,220.8,61h14.93V76.13h7.72V43H212.88v6.51H218a40.33,40.33,0,0,0-6.57,22.1c0,.87,0,1.67,0,2.39a20.51,20.51,0,0,0,.16,2.11h7.85C219.36,75.34,219.29,74.56,219.22,73.8Zm6-21.81A29.46,29.46,0,0,1,227,49.53h8.75V54.4h-12C224.23,53.61,224.72,52.8,225.24,52Z"/><path class="cls-1" d="M251.65,49.53h5.12a40.13,40.13,0,0,0-6.61,22.1c0,.87,0,1.67,0,2.39s.08,1.43.16,2.11h8.11c-.09-.79-.15-1.57-.19-2.33s-.07-1.48-.07-2.17a39.88,39.88,0,0,1,6.68-22.1h9.79v26.6h7.79V43H251.65Z"/><polygon class="cls-1" points="300.95 76.13 308.51 76.13 308.51 49.63 318.56 49.63 318.56 43.13 290.89 43.13 290.89 49.63 300.95 49.63 300.95 76.13"/><path class="cls-1" d="M335.62,69.51a28.7,28.7,0,0,1,3.15-6.45,35.07,35.07,0,0,1,4.81-5.82,32.45,32.45,0,0,1,6-4.61V76h7.56V42.45a36.36,36.36,0,0,0-12.06,5.17,50.82,50.82,0,0,0-10.43,9.29V43h-7.56V76h7.56A18,18,0,0,1,335.62,69.51Z"/><path class="cls-1" d="M373.57,69.6a28.7,28.7,0,0,1,3.15-6.45,35.07,35.07,0,0,1,4.81-5.82,32.45,32.45,0,0,1,6-4.61V76.13h7.56V42.54A36.36,36.36,0,0,0,383,47.71,50.56,50.56,0,0,0,372.57,57V43.13H365v33h7.56A18,18,0,0,1,373.57,69.6Z"/><rect class="cls-1" x="372.57" y="31.16" width="15.06" height="6.5"/><path class="cls-1" d="M434.13,69.63H412.64a27.26,27.26,0,0,1,7.94-12.19A33.71,33.71,0,0,1,434.13,50V43.13a40.86,40.86,0,0,0-21.24,12.09,31.74,31.74,0,0,0-9,20.91h30.23Z"/><path class="cls-1" d="M449.69,63.13a20.29,20.29,0,0,1,5,2,22.34,22.34,0,0,1,4.1,3,17.47,17.47,0,0,1,3,3.71,15.89,15.89,0,0,1,1.78,4.31h8.37A17,17,0,0,0,470.12,71a24.36,24.36,0,0,0-3.38-4.8,24,24,0,0,0-4.59-3.95,21.28,21.28,0,0,0-5.59-2.66,27.52,27.52,0,0,0,5.34-2.84,28.75,28.75,0,0,0,4.65-3.93A23.79,23.79,0,0,0,470,48.14a16.57,16.57,0,0,0,1.91-5h-8.44a13,13,0,0,1-1.81,4.09A21.24,21.24,0,0,1,458.53,51a22.2,22.2,0,0,1-4.13,3.15,20.37,20.37,0,0,1-4.71,2.06V43.13h-7.5v33h7.5Z"/><path class="cls-1" d="M509,65.94a38.84,38.84,0,0,0-2.59-7.31,43.91,43.91,0,0,0-9.62-13L494,43.13l-2.75,2.55a44,44,0,0,0-9.56,13,36.45,36.45,0,0,0-3.62,14.95L478,76.94h32.05L510,73.58A34.9,34.9,0,0,0,509,65.94Zm-23.08,4.5A32.74,32.74,0,0,1,494,52.94a31.5,31.5,0,0,1,8.12,17.5Z"/><path class="cls-1" d="M548.58,50V43.13a40,40,0,0,0-21.31,12.09q-8.61,9.25-9,20.91h29v-6.5H527A12.57,12.57,0,0,1,529,64.86h17.3v-6.5H533.77a36.49,36.49,0,0,1,6.34-4.77A37.22,37.22,0,0,1,548.58,50Z"/><polygon class="cls-1" points="195.56 106.81 177.45 106.81 177.45 93.48 168.57 93.48 168.57 132.33 177.45 132.33 177.45 114.45 195.56 114.45 195.56 132.33 204.43 132.33 204.43 93.48 195.56 93.48 195.56 106.81"/><path class="cls-1" d="M214.49,105.72h4.94a41.3,41.3,0,0,0-6.38,22.11c0,.87,0,1.66,0,2.39s.08,1.42.16,2.11h7.62c-.08-.79-.15-1.57-.22-2.33s-.09-1.48-.09-2.17a39,39,0,0,1,.37-5.5,28.42,28.42,0,0,1,1.25-5.17h14.5v15.17h7.49V99.22H214.49Zm12,2.47c.5-.81,1.07-1.63,1.69-2.47h8.5v4.88H225.05C225.51,109.81,226,109,226.48,108.19Z"/><path class="cls-1" d="M260.19,111.41a31.73,31.73,0,0,0-9,20.92h30.24v-6.5H259.94a27.24,27.24,0,0,1,7.93-12.19,33.68,33.68,0,0,1,13.56-7.48V99.33A40.88,40.88,0,0,0,260.19,111.41Z"/><path class="cls-1" d="M290.61,105.72h4.93a41.37,41.37,0,0,0-6.37,22.11c0,.87,0,1.66,0,2.39s.08,1.42.16,2.11h7.81c-.09-.79-.15-1.57-.19-2.33s-.06-1.48-.06-2.17a41,41,0,0,1,6.43-22.11h9.44v26.61h7.49V99.22H290.61Z"/><path class="cls-1" d="M337.44,111.41q-8.62,9.27-9,20.92h29v-6.5H337.19a12.57,12.57,0,0,1,1.94-4.77h17.3v-6.5H343.94a35.84,35.84,0,0,1,14.8-8.4V99.33A40.06,40.06,0,0,0,337.44,111.41Z"/><path class="cls-1" d="M367.29,105.72h4.94a41.29,41.29,0,0,0-6.37,22.11c0,.87,0,1.66,0,2.39a20.72,20.72,0,0,0,.16,2.11H397V99.22H367.29Zm12.69,0h9.49v20.11H373.6A40.37,40.37,0,0,1,380,105.72Z"/><path class="cls-1" d="M413.07,113.2V99.33h-7.56v33h7.56a18.17,18.17,0,0,1,1-6.53,28.33,28.33,0,0,1,3.16-6.45,33.73,33.73,0,0,1,4.81-5.82,32.06,32.06,0,0,1,6-4.61v23.41h7.56V98.73a36.45,36.45,0,0,0-12.05,5.18A50.57,50.57,0,0,0,413.07,113.2Z"/><path class="cls-1" d="M452.75,111.41q-8.61,9.27-9,20.92h29v-6.5H452.5a12.57,12.57,0,0,1,1.94-4.77h17.3v-6.5H459.25a35.8,35.8,0,0,1,14.81-8.4V99.33A40.05,40.05,0,0,0,452.75,111.41Z"/></g></g></svg>