<svg xmlns="http://www.w3.org/2000/svg" viewBox="0 0 140.9 154.74"><defs><style>.cls-1{fill:#474747;}</style></defs><title>Icon gray</title><g id="Layer_2" data-name="Layer 2"><g id="Layer_2-2" data-name="Layer 2"><path class="cls-1" d="M114.2,0c-6,2.58-11.11,10.31-11.11,10.31H81.56S76.45,2.58,70.45,0c-6,2.58-11.11,10.31-11.11,10.31H37.59S32.48,2.58,26.48,0c-6,2.58-11.1,10.31-11.1,10.31H0V154.74H140.9V10.31H125.31S120.2,2.58,114.2,0ZM114,62.36c3.54,0,9.48,2,9.48,2V88.87H105.25V64.31S110.46,62.36,114,62.36Zm-8.74,55.53s5.21-2,8.74-2,9.48,2,9.48,2v24.54H105.25ZM114,43.57h-9.45V29.14c0-1.84,1.9-9.57,9.45-13.78,7.54,4.21,9.44,11.94,9.44,13.78V43.57Zm-44.2,0H60.35V29.14c0-1.84,1.9-9.57,9.44-13.78,7.55,4.21,9.45,11.94,9.45,13.78V43.57ZM35.6,88.87H17.39V64.31s5.2-2,8.74-2,9.47,2,9.47,2Zm0,53.56H17.39V117.89s5.2-2,8.74-2,9.47,2,9.47,2ZM26.13,43.57H16.68V29.14c0-1.84,1.9-9.57,9.45-13.78,7.54,4.21,9.44,11.94,9.44,13.78V43.57Zm43.66,98.86H60.35V74.49c0-1.84,1.9-9.56,9.44-13.78,7.55,4.22,9.45,11.94,9.45,13.78v67.94Z"/></g></g></svg>