<svg xmlns="http://www.w3.org/2000/svg" viewBox="0 0 140.9 154.74"><defs><style>.cls-1{fill:#fff;}</style></defs><title>Icon white</title><g id="Layer_2" data-name="Layer 2"><g id="Layer_2-2" data-name="Layer 2"><path class="cls-1" d="M114.2,0c-6,2.58-11.11,10.31-11.11,10.31H81.56S76.45,2.58,70.45,0c-6,2.58-11.11,10.31-11.11,10.31H37.59S32.48,2.58,26.48,0c-6,2.58-11.1,10.31-11.1,10.31H0V154.74H140.9V10.31H125.31S120.2,2.58,114.2,0ZM35.6,88.87H17.39V64.31s5.2-2,8.74-2,9.47,2,9.47,2ZM16.68,29.14c0-1.84,1.9-9.57,9.45-13.78,7.54,4.21,9.44,11.94,9.44,13.78V43.57H16.68ZM35.6,142.43H17.39V117.89s5.2-2,8.74-2,9.47,2,9.47,2Zm43.64,0H57.17v-.15h3.18V74.49c0-1.84,1.9-9.56,9.44-13.78,7.55,4.22,9.45,11.94,9.45,13.78Zm0-98.86H60.35V29.14c0-1.84,1.9-9.57,9.44-13.78,7.55,4.21,9.45,11.94,9.45,13.78Zm44.23,45.3H105.25V64.31s5.21-2,8.74-2,9.48,2,9.48,2ZM104.54,29.14c0-1.84,1.9-9.57,9.45-13.78,7.54,4.21,9.44,11.94,9.44,13.78V43.57H104.54Zm18.93,113.29H105.25V117.89s5.21-2,8.74-2,9.48,2,9.48,2Z"/></g></g></svg>