<svg xmlns="http://www.w3.org/2000/svg" viewBox="0 0 140.9 154.74"><defs><style>.cls-1{fill:#481f1d;}.cls-2{fill:#e17850;}.cls-3{fill:#692215;}.cls-4{fill:#a44532;}.cls-5{fill:#672114;}</style></defs><title>Icon color</title><g id="Layer_2" data-name="Layer 2"><g id="Layer_2-2" data-name="Layer 2"><path class="cls-1" d="M17.39,117.89s5.2-2,8.74-2,9.47,2,9.47,2l3.15-10.19s-3.84-3.15-12.25-3.15c-9.36,0-13,3.15-13,3.15Z"/><path class="cls-1" d="M17.39,64.31s5.2-2,8.74-2,9.47,2,9.47,2l3.15-10.19S34.91,51,26.5,51c-9.36,0-13,3.16-13,3.16Z"/><path class="cls-1" d="M105.25,64.31s5.21-2,8.74-2,9.48,2,9.48,2l3.15-10.19S122.78,51,114.36,51c-9.36,0-13,3.16-13,3.16Z"/><path class="cls-1" d="M105.25,117.89s5.21-2,8.74-2,9.48,2,9.48,2l3.15-10.19s-3.84-3.15-12.26-3.15c-9.36,0-13,3.15-13,3.15Z"/><path class="cls-2" d="M125.31,10.31S120.2,2.58,114.2,0c-6,2.58-11.11,10.31-11.11,10.31H81.56S76.45,2.58,70.45,0c-6,2.58-11.11,10.31-11.11,10.31H37.59S32.48,2.58,26.48,0c-6,2.58-11.1,10.31-11.1,10.31H0V154.74H140.9V10.31ZM38.75,142.43H13.5V107.67s4.37-3.09,12.63-3.09,12.62,3.09,12.62,3.09Zm0-53.56H13.5V54.12S17.87,51,26.13,51s12.62,3.09,12.62,3.09Zm0-45.3H13.5V24.8c0-1.36,1.4-6,4.49-10.58a44.36,44.36,0,0,1,8.14-8.6,44.69,44.69,0,0,1,8.14,8.6c3.08,4.6,4.48,9.22,4.48,10.58Zm43.66,98.86H57.17V70.15c0-1.35,1.4-6,4.48-10.58A44.36,44.36,0,0,1,69.79,51a44.36,44.36,0,0,1,8.14,8.6c3.08,4.6,4.48,9.23,4.48,10.58Zm0-98.86H57.17V24.8c0-1.36,1.4-6,4.48-10.58a44.36,44.36,0,0,1,8.14-8.6,44.36,44.36,0,0,1,8.14,8.6c3.08,4.6,4.48,9.22,4.48,10.58Zm44.2,98.86H101.37V107.67s4.36-3.09,12.62-3.09,12.62,3.09,12.62,3.09Zm0-53.56H101.37V54.12S105.73,51,114,51s12.62,3.09,12.62,3.09Zm0-45.3H101.37V24.8c0-1.36,1.4-6,4.48-10.58A44.36,44.36,0,0,1,114,5.62a44.36,44.36,0,0,1,8.14,8.6c3.08,4.6,4.48,9.22,4.48,10.58Z"/><path class="cls-3" d="M18,14.22c-3.09,4.6-4.49,9.22-4.49,10.58V43.57h3.18V29.14c0-1.84,1.9-9.57,9.45-13.78V5.62A44.36,44.36,0,0,0,18,14.22Z"/><path class="cls-4" d="M34.27,14.22c3.08,4.6,4.48,9.22,4.48,10.58V43.57H35.57V29.14c0-1.84-1.9-9.57-9.44-13.78V5.62A44.36,44.36,0,0,1,34.27,14.22Z"/><path class="cls-3" d="M61.65,14.22c-3.08,4.6-4.48,9.22-4.48,10.58V43.57h3.18V29.14c0-1.84,1.9-9.57,9.44-13.78V5.62A44.36,44.36,0,0,0,61.65,14.22Z"/><path class="cls-4" d="M77.93,14.22c3.08,4.6,4.48,9.22,4.48,10.58V43.57H79.24V29.14c0-1.84-1.9-9.57-9.45-13.78V5.62A44.36,44.36,0,0,1,77.93,14.22Z"/><path class="cls-3" d="M61.65,59.57c-3.08,4.6-4.48,9.23-4.48,10.58v72.28h3.18V74.49c0-1.84,1.9-9.56,9.44-13.78V51A44.36,44.36,0,0,0,61.65,59.57Z"/><path class="cls-4" d="M77.93,59.57c3.08,4.6,4.48,9.23,4.48,10.58v72.28H79.24V74.49c0-1.84-1.9-9.56-9.45-13.78V51A44.36,44.36,0,0,1,77.93,59.57Z"/><path class="cls-3" d="M105.85,14.22c-3.08,4.6-4.48,9.22-4.48,10.58V43.57h3.17V29.14c0-1.84,1.9-9.57,9.45-13.78V5.62A44.36,44.36,0,0,0,105.85,14.22Z"/><path class="cls-4" d="M122.13,14.22c3.08,4.6,4.48,9.22,4.48,10.58V43.57h-3.18V29.14c0-1.84-1.9-9.57-9.44-13.78V5.62A44.36,44.36,0,0,1,122.13,14.22Z"/><polygon class="cls-5" points="17.39 88.88 17.39 64.31 13.5 54.13 13.5 88.88 17.39 88.88"/><polygon class="cls-4" points="35.6 88.87 35.6 64.31 38.75 54.12 38.75 88.87 35.6 88.87"/><polygon class="cls-5" points="17.39 142.46 17.39 117.89 13.5 107.7 13.5 142.46 17.39 142.46"/><polygon class="cls-4" points="35.6 142.45 35.6 117.89 38.75 107.7 38.75 142.45 35.6 142.45"/><polygon class="cls-5" points="105.25 88.88 105.25 64.31 101.36 54.13 101.36 88.88 105.25 88.88"/><polygon class="cls-4" points="123.47 88.87 123.47 64.31 126.62 54.12 126.62 88.87 123.47 88.87"/><polygon class="cls-5" points="105.25 142.46 105.25 117.89 101.36 107.7 101.36 142.46 105.25 142.46"/><polygon class="cls-4" points="123.47 142.45 123.47 117.89 126.62 107.7 126.62 142.45 123.47 142.45"/></g></g></svg>