<?xml version="1.0" encoding="utf-8"?>
<!-- Generator: Adobe Illustrator 24.0.2, SVG Export Plug-In . SVG Version: 6.00 Build 0)  -->
<svg version="1.1" id="Слой_1" xmlns="http://www.w3.org/2000/svg" xmlns:xlink="http://www.w3.org/1999/xlink" x="0px" y="0px"
	 width="35px" height="35px" viewBox="0 0 35 35" style="enable-background:new 0 0 35 35;" xml:space="preserve">
<style type="text/css">
	.st0{fill:none;stroke:#020203;stroke-width:2;stroke-linejoin:round;stroke-miterlimit:10;}
	.st1{fill:#AE1921;}
</style>
<g>
	<g>
		<path class="st0" d="M15.8,9.4h3.3C19.6,9.4,20,9,20,8.5V4.4h-5v4.2C14.9,9,15.3,9.4,15.8,9.4z"/>
		<path class="st0" d="M20,34h-5V20.6c0-0.3,0.2-0.5,0.5-0.5h4c0.3,0,0.5,0.2,0.5,0.5L20,34z"/>
		<path class="st0" d="M20.6,12.5c0.2-0.2,0.2-0.5,0-0.6L19,10.3v0h-3l0,0.1l-1.6,1.5c-0.2,0.2-0.2,0.4,0,0.6l1.2,1.2l0.4-0.4l0,6h3
			v-6l0.5,0.5L20.6,12.5z"/>
		<polygon class="st0" points="19,2.4 19,1.5 17.9,1.5 17.9,1 16.9,1 16.9,1.5 16,1.5 16,2.4 14.9,2.4 14.9,3.5 20,3.5 20,2.4 		"/>
	</g>
	<g>
		<path class="st1" d="M15.8,9.4h3.3C19.6,9.4,20,9,20,8.5V4.4h-5v4.2C14.9,9,15.3,9.4,15.8,9.4z"/>
		<path class="st1" d="M20,34h-5V20.6c0-0.3,0.2-0.5,0.5-0.5h4c0.3,0,0.5,0.2,0.5,0.5L20,34z"/>
		<path class="st1" d="M20.6,12.5c0.2-0.2,0.2-0.5,0-0.6L19,10.3v0h-3l0,0.1l-1.6,1.5c-0.2,0.2-0.2,0.4,0,0.6l1.2,1.2l0.4-0.4l0,6h3
			v-6l0.5,0.5L20.6,12.5z"/>
		<polygon class="st1" points="19,2.4 19,1.5 17.9,1.5 17.9,1 16.9,1 16.9,1.5 16,1.5 16,2.4 14.9,2.4 14.9,3.5 20,3.5 20,2.4 		"/>
	</g>
</g>
</svg>
