<?xml version="1.0" encoding="utf-8"?>
<!-- Generator: Adobe Illustrator 24.0.2, SVG Export Plug-In . SVG Version: 6.00 Build 0)  -->
<svg version="1.1" id="Слой_1" xmlns="http://www.w3.org/2000/svg" xmlns:xlink="http://www.w3.org/1999/xlink" x="0px" y="0px"
	 width="35px" height="35px" viewBox="0 0 35 35" style="enable-background:new 0 0 35 35;" xml:space="preserve">
<style type="text/css">
	.st0{fill:#050606;}
	.st1{fill:#AE1921;}
</style>
<g>
	<g>
		<path class="st0" d="M20.1,11.4h-5.2c-1,0-1.9-0.8-1.9-1.9v-2c0-0.5,0.4-1,1-1h7c0.5,0,1,0.4,1,1v2C22,10.5,21.1,11.4,20.1,11.4z
			 M15,9.4h5.1l0-0.9H15V9.4z"/>
		<path class="st0" d="M21.4,7.9h-7.8c-0.5,0-1-0.4-1-1V6.1c0-0.5,0.4-1,1-1h7.8c0.5,0,1,0.4,1,1V7C22.4,7.5,21.9,7.9,21.4,7.9z"/>
		<path class="st0" d="M21.4,6.7h-7.8c-0.5,0-1-0.4-1-1c0-0.1,0-0.5,0.2-0.9c0.3-0.7,1-1.1,1.7-1.1c0,0,0,0,0,0h0.1
			c0.1-0.3,0.4-0.5,0.8-0.6l-0.1-0.3c-0.1-0.3,0-0.7,0.2-1l1.2-1.4c0.4-0.4,1.1-0.4,1.5,0l1.2,1.4c0.2,0.3,0.3,0.6,0.2,1l-0.1,0.3
			c0.3,0,0.6,0.3,0.8,0.6h0.2c0.8,0,1.2,0.4,1.5,0.6C22.5,5,22.4,5.8,22.4,6C22.3,6.4,21.9,6.7,21.4,6.7z M16.9,4.8h1.2
			c-0.1-0.1-0.2-0.2-0.2-0.3c-0.1-0.1-0.2-0.2-0.3-0.3c0,0,0-0.1-0.1-0.1c0,0,0,0.1-0.1,0.1c-0.1,0.1-0.2,0.2-0.3,0.3
			C17.1,4.6,17,4.7,16.9,4.8z M17.3,2.7l0.1,0.4l0.1-0.4l-0.1-0.2L17.3,2.7z"/>
		<path class="st0" d="M19.4,16.2h-3.8c-0.5,0-1-0.4-1-0.9c-0.4,0-0.7-0.2-0.9-0.5L13,13.5c-0.4-0.7-0.2-1.6,0.5-2l1.1-0.6
			c0.1-0.5,0.5-0.8,1-0.8h3.8c0.5,0,0.9,0.4,1,0.8l1.1,0.6c0.7,0.4,1,1.3,0.6,2l-0.8,1.3c-0.2,0.3-0.5,0.5-0.9,0.5
			C20.4,15.8,19.9,16.2,19.4,16.2z M16.5,14.3h1.9v-0.5c0-0.3,0.2-0.7,0.5-0.8c0.3-0.2,0.7-0.2,1,0L20,13l0.1-0.1l-1.2-0.7
			c-0.1-0.1-0.2-0.2-0.3-0.3h-2.3c-0.1,0.1-0.2,0.2-0.3,0.3l-1.2,0.7l0.1,0.1l0.1-0.1c0.3-0.2,0.7-0.2,1,0c0.3,0.2,0.5,0.5,0.5,0.8
			V14.3z"/>
		<path class="st0" d="M20,17.3h-5c-0.5,0-1-0.4-1-1v-0.8c0-0.5,0.4-1,1-1h5c0.5,0,1,0.4,1,1v0.8C20.9,16.8,20.5,17.3,20,17.3z"/>
		<path class="st0" d="M19.4,29.9h-3.7c-0.5,0-1.1-0.2-1.4-0.6c-0.4-0.4-0.6-0.9-0.5-1.5l0.9-11c0-0.5,0.5-0.9,1-0.9h3.9
			c0.5,0,0.9,0.4,1,0.9l0.9,11c0,0.5-0.1,1.1-0.5,1.5C20.4,29.6,19.9,29.9,19.4,29.9z M16.4,17.8l-0.8,10.1l3.7,0c0,0,0,0,0,0
			l-0.8-10.1H16.4z"/>
		<path class="st0" d="M19.4,31.8h-3.9c-0.5,0-1-0.4-1-1v-1c0-0.5,0.4-1,1-1h3.9c0.5,0,1,0.4,1,1v1C20.4,31.3,20,31.8,19.4,31.8z"/>
		<path class="st0" d="M20.4,34.9h-5.9c-0.5,0-1-0.4-1-1v-2.2c0-0.5,0.4-1,1-1h5.9c0.5,0,1,0.4,1,1v2.2C21.4,34.5,21,34.9,20.4,34.9
			z M15.5,33h3.9v-0.2h-3.9V33z"/>
	</g>
	<g>
		<path class="st1" d="M14.9,10.4h5.2c0.5,0,0.9-0.4,0.9-0.9v-2h-7v2C14,10,14.4,10.4,14.9,10.4z"/>
		<rect x="13.6" y="6.1" class="st1" width="7.8" height="0.8"/>
		<path class="st1" d="M20.4,4.6c-0.9,0-0.9,0-0.9,0V4h-0.7V3.6h-0.4l0.4-1.1L17.5,1l-1.2,1.4l0.4,1.1h-0.4V4h-0.7v0.6
			c0,0-0.1,0-1,0c-0.9,0-0.9,1.1-0.9,1.1h7.8C21.4,5.7,21.3,4.6,20.4,4.6z"/>
		<path class="st1" d="M15.6,13.8v1.5h3.8v-1.5l1,0.6l0.8-1.4c0.1-0.2,0.1-0.5-0.2-0.6l-1.6-0.9V11h-3.8v0.4L14,12.3
			c-0.2,0.1-0.3,0.4-0.2,0.6l0.8,1.4L15.6,13.8z"/>
		<rect x="15" y="15.5" class="st1" width="5" height="0.8"/>
		<path class="st1" d="M20.3,27.8l-0.9-11h-3.9l-0.9,11c-0.1,0.6,0.4,1.1,1,1.1h3.7C19.9,28.9,20.4,28.4,20.3,27.8z"/>
		<rect x="15.5" y="29.9" class="st1" width="3.9" height="1"/>
		<rect x="14.6" y="31.8" class="st1" width="5.9" height="2.2"/>
	</g>
</g>
</svg>
