<?xml version="1.0" encoding="utf-8"?>
<!-- Generator: Adobe Illustrator 24.0.2, SVG Export Plug-In . SVG Version: 6.00 Build 0)  -->
<svg version="1.1" id="Слой_1" xmlns="http://www.w3.org/2000/svg" xmlns:xlink="http://www.w3.org/1999/xlink" x="0px" y="0px"
	 width="35px" height="35px" viewBox="0 0 35 35" style="enable-background:new 0 0 35 35;" xml:space="preserve">
<style type="text/css">
	.st0{fill:#050606;}
	.st1{fill:#AE1921;}
	.st2{fill:#020203;}
</style>
<g>
	<g>
		<g>
			<path class="st0" d="M21,10h-6.9c-0.6,0-1-0.4-1-1V5c0-0.6,0.4-1,1-1H21c0.6,0,1,0.4,1,1v4C22,9.6,21.5,10,21,10z M15.1,8H20V6
				h-4.9V8z"/>
			<path class="st0" d="M21,5.2h-6.9c-0.6,0-1-0.4-1-1V3c0-0.6,0.4-1,1-1H21c0.6,0,1,0.4,1,1v1.2C22,4.8,21.5,5.2,21,5.2z"/>
			<path class="st0" d="M19.6,4.4h-4.2c-0.6,0-1-0.4-1-1V2c0-0.6,0.4-1,1-1h4.2c0.6,0,1,0.4,1,1v1.4C20.6,4,20.2,4.4,19.6,4.4z"/>
			<path class="st0" d="M19,3.6h-3c-0.6,0-1-0.4-1-1V1c0-0.6,0.4-1,1-1h3c0.6,0,1,0.4,1,1v1.6C20,3.1,19.5,3.6,19,3.6z"/>
			<path class="st0" d="M20,27h-5c-0.6,0-1-0.4-1-1V10.1c0-0.6,0.4-1,1-1h5c0.6,0,1,0.4,1,1V26C21,26.6,20.6,27,20,27z M16,25h3
				V11.1h-3V25z"/>
			<g>
				<path class="st0" d="M21.5,16.4c-0.2,0-0.4-0.1-0.6-0.2l-3-2.2c-0.4-0.3-0.5-0.9-0.2-1.4l1.4-2.1c0.2-0.3,0.5-0.4,0.8-0.4
					c0,0,0,0,0,0l1.3,0c0.8,0,1.5,0.3,2,0.9l1,1.1c0.3,0.4,0.4,0.9,0.1,1.3l-2,2.6C22.1,16.2,21.8,16.4,21.5,16.4z M19.9,12.9l1.4,1
					l0.9-1.2l-0.4-0.5c-0.1-0.1-0.3-0.2-0.5-0.2l-0.8,0L19.9,12.9z"/>
				<path class="st0" d="M13.5,16.4c-0.3,0-0.6-0.1-0.8-0.4l-2-2.6c-0.3-0.4-0.3-0.9,0.1-1.3l1-1.1c0.5-0.6,1.2-0.9,2-0.9l1.3,0
					c0,0,0,0,0,0c0.3,0,0.6,0.2,0.8,0.4l1.4,2.1c0.3,0.4,0.2,1-0.2,1.4l-3,2.2C13.9,16.3,13.7,16.4,13.5,16.4z M12.8,12.8l0.9,1.2
					l1.4-1l-0.6-0.8l-0.8,0c-0.2,0-0.4,0.1-0.5,0.2L12.8,12.8z"/>
			</g>
			<path class="st0" d="M21,35h-6.9c-0.6,0-1-0.4-1-1v-6.2c0-1,0.8-1.7,1.7-1.7h5.5c1,0,1.7,0.8,1.7,1.7V34C22,34.6,21.5,35,21,35z
				 M15.1,33H20v-4.9h-4.9V33z"/>
		</g>
		<g>
			<rect x="14.1" y="5" class="st1" width="6.9" height="4"/>
			<rect x="14.1" y="3" class="st1" width="6.9" height="1.2"/>
			<rect x="15.4" y="2" class="st1" width="4.2" height="1.4"/>
			<rect x="16" y="1" class="st1" width="3" height="1.6"/>
			<rect x="15" y="10.1" class="st1" width="5" height="15.9"/>
			<g>
				<path class="st1" d="M18.5,13.2l3,2.2l2-2.6l-1-1.1c-0.3-0.4-0.8-0.6-1.3-0.6l-1.3,0L18.5,13.2z"/>
				<path class="st1" d="M16.5,13.2l-3,2.2l-2-2.6l1-1.1c0.3-0.4,0.8-0.6,1.3-0.6l1.3,0L16.5,13.2z"/>
			</g>
			<path class="st1" d="M20.3,27.1h-5.5c-0.4,0-0.7,0.3-0.7,0.7V34H21v-6.2C21,27.4,20.7,27.1,20.3,27.1z"/>
		</g>
	</g>
	<circle class="st2" cx="17.5" cy="23.4" r="1.5"/>
</g>
</svg>
