<?xml version="1.0" encoding="utf-8"?>
<!-- Generator: Adobe Illustrator 24.0.2, SVG Export Plug-In . SVG Version: 6.00 Build 0)  -->
<svg version="1.1" id="Слой_1" xmlns="http://www.w3.org/2000/svg" xmlns:xlink="http://www.w3.org/1999/xlink" x="0px" y="0px"
	 width="35px" height="35px" viewBox="0 0 35 35" style="enable-background:new 0 0 35 35;" xml:space="preserve">
<style type="text/css">
	.st0{fill:#050606;}
	.st1{fill:#AE1921;}
	.st2{fill:#020203;}
</style>
<g>
	<g>
		<path class="st0" d="M21.6,5h-8.1c-0.4,0-0.8-0.2-0.9-0.6s-0.1-0.8,0.2-1.1l1.6-1.5C14.8,1.3,15.5,1,16.2,1h2.6
			c0.7,0,1.4,0.3,1.9,0.7l1.6,1.5c0.3,0.3,0.4,0.7,0.2,1.1C22.3,4.8,22,5,21.6,5z M16.2,3h2.6H16.2z"/>
		<path class="st0" d="M21.5,6.3h-8.1c-0.6,0-1-0.4-1-1V4.4c0-0.6,0.4-1,1-1h8.1c0.6,0,1,0.4,1,1v0.9C22.5,5.9,22.1,6.3,21.5,6.3z"
			/>
		<path class="st0" d="M20.5,8h-6c-0.6,0-1-0.4-1-1V6c0-0.6,0.4-1,1-1h6c0.6,0,1,0.4,1,1v1C21.5,7.5,21.1,8,20.5,8z"/>
		<path class="st0" d="M20.5,33h-6c-0.6,0-1-0.4-1-1V8c0-0.6,0.4-1,1-1h6c0.6,0,1,0.4,1,1v24C21.5,32.5,21.1,33,20.5,33z M15.5,31h4
			V9h-4V31z"/>
		<path class="st0" d="M18.2,4h-1.5c-0.7,0-1.3-0.6-1.3-1.3V1.3c0-0.7,0.6-1.3,1.3-1.3h1.5c0.7,0,1.3,0.6,1.3,1.3v1.5
			C19.5,3.5,18.9,4,18.2,4z"/>
		<path class="st0" d="M21.5,35h-8c-0.6,0-1-0.4-1-1v-1c0-0.6,0.4-1,1-1h8c0.6,0,1,0.4,1,1v1C22.5,34.5,22,35,21.5,35z"/>
		<g>
			<g>
				<path class="st0" d="M19.8,14.6c-0.1,0-0.3,0-0.4-0.1c-0.4-0.2-0.6-0.6-0.6-1L19.1,9c0-0.5,0.4-0.9,0.9-0.9
					C20.8,8,22.3,8,23.1,8.6c0.6,0.5,0.9,0.9,1,1c0.3,0.4,0.2,0.9-0.1,1.3c0,0-2.2,2.2-3.5,3.4C20.3,14.5,20,14.6,19.8,14.6z M21,10
					l-0.1,1c0.3-0.3,0.6-0.6,0.9-0.9c0,0,0,0,0,0C21.7,10.1,21.4,10,21,10z"/>
				<path class="st0" d="M22.4,14.7c-0.2,0-0.5-0.1-0.7-0.3l-1-0.9c-0.2-0.2-0.3-0.4-0.3-0.7c0-0.3,0.1-0.5,0.3-0.7l1.8-1.9
					c0.4-0.4,1-0.4,1.4-0.1l0.9,0.8c0.2,0.2,0.3,0.4,0.3,0.7c0,0.3-0.1,0.5-0.3,0.7l-1.8,1.9C23,14.6,22.7,14.7,22.4,14.7z"/>
			</g>
			<g>
				<path class="st0" d="M15.2,14.6c-0.3,0-0.5-0.1-0.7-0.3c-1.3-1.3-3.5-3.4-3.5-3.4c-0.3-0.3-0.4-0.9-0.1-1.3c0-0.1,0.3-0.5,1-1
					C12.7,8,14.2,8,15,8c0.5,0,0.9,0.4,0.9,0.9l0.3,4.5c0,0.4-0.2,0.8-0.6,1C15.5,14.5,15.4,14.6,15.2,14.6z M13.2,10.1
					c0.2,0.2,0.5,0.5,0.9,0.9L14,10C13.6,10,13.3,10.1,13.2,10.1z"/>
				<path class="st0" d="M12.6,14.7c-0.3,0-0.5-0.1-0.7-0.3L10,12.5c-0.2-0.2-0.3-0.5-0.3-0.7c0-0.3,0.1-0.5,0.3-0.7l0.9-0.8
					c0.4-0.3,1-0.3,1.4,0.1l1.8,1.9c0.2,0.2,0.3,0.5,0.3,0.7c0,0.3-0.1,0.5-0.3,0.7l-1,0.9C13.1,14.6,12.8,14.7,12.6,14.7z"/>
			</g>
		</g>
	</g>
	<g>
		<path class="st1" d="M18.8,2h-2.5c-0.5,0-0.9,0.2-1.3,0.5L13.4,4h8.1L20,2.5C19.7,2.2,19.2,2,18.8,2z"/>
		<rect x="13.5" y="4.4" class="st1" width="8.1" height="0.9"/>
		<rect x="14.5" y="6" class="st1" width="6" height="1"/>
		<rect x="14.5" y="8" class="st1" width="6" height="24"/>
		<path class="st1" d="M18.2,1h-1.5c-0.1,0-0.3,0.1-0.3,0.3v1.5c0,0.1,0.1,0.3,0.3,0.3h1.5c0.1,0,0.3-0.1,0.3-0.3V1.3
			C18.5,1.1,18.4,1,18.2,1z"/>
		<rect x="13.5" y="33" class="st1" width="8" height="1"/>
		<g>
			<g>
				<path class="st1" d="M20.1,9c0,0,1.8-0.1,2.3,0.3c0.6,0.5,0.8,0.8,0.8,0.8s-2.2,2.2-3.4,3.4L20.1,9z"/>
				<polygon class="st1" points="23.3,11 24.2,11.8 22.4,13.7 21.5,12.8 				"/>
			</g>
			<g>
				<path class="st1" d="M14.9,9c0,0-1.8-0.1-2.3,0.3c-0.6,0.5-0.8,0.8-0.8,0.8s2.2,2.2,3.4,3.4L14.9,9z"/>
				<polygon class="st1" points="11.7,11 10.8,11.8 12.6,13.7 13.5,12.8 				"/>
			</g>
		</g>
	</g>
	<circle class="st2" cx="17.5" cy="17.7" r="1.8"/>
</g>
</svg>
