<?xml version="1.0" encoding="utf-8"?>
<!-- Generator: Adobe Illustrator 24.0.2, SVG Export Plug-In . SVG Version: 6.00 Build 0)  -->
<svg version="1.1" id="Слой_1" xmlns="http://www.w3.org/2000/svg" xmlns:xlink="http://www.w3.org/1999/xlink" x="0px" y="0px"
	 width="35px" height="35px" viewBox="0 0 35 35" style="enable-background:new 0 0 35 35;" xml:space="preserve">
<style type="text/css">
	.st0{fill:#050606;}
	.st1{fill:#AE1921;}
</style>
<g>
	<g>
		<path class="st0" d="M24.6,7.9H10.4c-0.6,0-1-0.4-1-1V4c0-1.7,1.4-3,3-3h10.1c1.7,0,3,1.4,3,3v3C25.6,7.5,25.1,7.9,24.6,7.9z
			 M11.4,5.9h12.1V4c0-0.6-0.5-1-1-1H12.5c-0.6,0-1,0.5-1,1V5.9z"/>
		<path class="st0" d="M23.5,10.1H11.5c-0.6,0-1-0.4-1-1V8c0-0.6,0.4-1,1-1h12.1c0.6,0,1,0.4,1,1v1.1C24.5,9.6,24.1,10.1,23.5,10.1z
			"/>
		<path class="st0" d="M25.5,12H9.5c-0.6,0-1-0.4-1-1v-1c0-0.6,0.4-1,1-1h16.1c0.6,0,1,0.4,1,1v1C26.5,11.5,26.1,12,25.5,12z"/>
		<path class="st0" d="M25.5,13.9H9.5c-0.6,0-1-0.4-1-1v-1c0-0.6,0.4-1,1-1h16.1c0.6,0,1,0.4,1,1v1C26.5,13.4,26.1,13.9,25.5,13.9z"
			/>
		<path class="st0" d="M22.5,35.1H12.4c-0.6,0-1-0.4-1-1v-20c0-0.6,0.4-1,1-1h10.1c0.6,0,1,0.4,1,1v20
			C23.5,34.6,23.1,35.1,22.5,35.1z M13.4,33.1h8.1v-18h-8.1V33.1z"/>
		<path class="st0" d="M20.5,3.9h-5.9c-0.6,0-1-0.4-1-1V2.3c0-1.3,1-2.3,2.3-2.3h3.3c1.3,0,2.3,1,2.3,2.3v0.6
			C21.5,3.4,21,3.9,20.5,3.9z"/>
	</g>
	<g>
		<path class="st1" d="M24.6,6.9H10.4V4c0-1.1,0.9-2,2-2h10.1c1.1,0,2,0.9,2,2V6.9z"/>
		<rect x="11.5" y="8" class="st1" width="12.1" height="1.1"/>
		<rect x="9.5" y="10" class="st1" width="16.1" height="1"/>
		<rect x="9.5" y="11.9" class="st1" width="16.1" height="1"/>
		<rect x="12.3" y="14.1" class="st1" width="10.2" height="20"/>
		<path class="st1" d="M20.5,2.9h-5.9V2.3c0-0.7,0.6-1.3,1.3-1.3h3.3c0.7,0,1.3,0.6,1.3,1.3V2.9z"/>
	</g>
</g>
</svg>
