<?xml version="1.0" encoding="utf-8"?>
<!-- Generator: Adobe Illustrator 24.0.2, SVG Export Plug-In . SVG Version: 6.00 Build 0)  -->
<svg version="1.1" id="Слой_1" xmlns="http://www.w3.org/2000/svg" xmlns:xlink="http://www.w3.org/1999/xlink" x="0px" y="0px"
	 width="35px" height="35px" viewBox="0 0 35 35" style="enable-background:new 0 0 35 35;" xml:space="preserve">
<style type="text/css">
	.st0{fill:#050606;}
	.st1{fill:#AE1921;}
</style>
<g>
	<g>
		<path class="st0" d="M24.5,6.6h-14c-0.6,0-1-0.4-1-1V3.2c0-0.4,0.3-0.8,0.7-1l7-2.1c0.2-0.1,0.4-0.1,0.6,0l7,2.1
			c0.4,0.1,0.7,0.5,0.7,1v2.5C25.5,6.2,25,6.6,24.5,6.6z M11.5,4.6h12V3.9l-6-1.8l-6,1.8V4.6z"/>
		<path class="st0" d="M23.7,8.7H11.3c-0.6,0-1-0.4-1-1v-1c0-0.6,0.4-1,1-1h12.3c0.6,0,1,0.4,1,1v1C24.7,8.2,24.2,8.7,23.7,8.7z"/>
		<path class="st0" d="M22.5,10.7h-9.9c-0.6,0-1-0.4-1-1v-1c0-0.6,0.4-1,1-1h9.9c0.6,0,1,0.4,1,1v1C23.5,10.3,23,10.7,22.5,10.7z"/>
		<path class="st0" d="M23.7,12.8H11.3c-0.6,0-1-0.4-1-1v-1c0-0.6,0.4-1,1-1h12.3c0.6,0,1,0.4,1,1v1C24.7,12.3,24.2,12.8,23.7,12.8z
			"/>
		<path class="st0" d="M22.5,14.8h-9.9c-0.6,0-1-0.4-1-1v-1c0-0.6,0.4-1,1-1h9.9c0.6,0,1,0.4,1,1v1C23.5,14.4,23,14.8,22.5,14.8z"/>
		<path class="st0" d="M23.7,16.9H11.3c-0.6,0-1-0.4-1-1v-1c0-0.6,0.4-1,1-1h12.3c0.6,0,1,0.4,1,1v1C24.7,16.5,24.2,16.9,23.7,16.9z
			"/>
		<path class="st0" d="M19.5,19h-4.1c-0.6,0-1-0.4-1-1v-1c0-0.6,0.4-1,1-1h4.1c0.6,0,1,0.4,1,1v1C20.5,18.5,20.1,19,19.5,19z"/>
		<path class="st0" d="M21.1,21h-7.2c-0.6,0-1-0.4-1-1v-1c0-0.6,0.4-1,1-1h7.2c0.6,0,1,0.4,1,1v1C22.1,20.6,21.7,21,21.1,21z"/>
		<path class="st0" d="M22.4,29h-1.3c-0.3,0-0.6-0.1-0.8-0.4l-2.1-2.4c-0.3-0.4-0.3-0.9,0-1.3l2.1-2.4c0.2-0.2,0.5-0.4,0.8-0.4h1.3
			c0.6,0,1,0.4,1,1V28C23.4,28.5,23,29,22.4,29z M20.3,25.5l1.1,1.3v-2.6L20.3,25.5z"/>
		<g>
			<path class="st0" d="M20,35.1H15c-0.6,0-1-0.4-1-1V20.7c0-0.6,0.4-1,1-1H20c0.6,0,1,0.4,1,1v2.4c0,0.2-0.1,0.5-0.2,0.6l-1.5,1.8
				l1.5,1.8C21,27.5,21,27.7,21,28v6.1C21,34.6,20.6,35.1,20,35.1z M16,33.1H19v-4.7l-1.8-2.2c-0.3-0.4-0.3-0.9,0-1.3l1.8-2.2v-1H16
				V33.1z"/>
		</g>
	</g>
	<g>
		<polygon class="st1" points="24.5,5.6 10.5,5.6 10.5,3.2 17.5,1.1 24.5,3.2 		"/>
		<rect x="11.3" y="6.7" class="st1" width="12.3" height="1"/>
		<rect x="12.5" y="8.7" class="st1" width="9.9" height="1"/>
		<rect x="11.3" y="10.8" class="st1" width="12.3" height="1"/>
		<rect x="12.5" y="12.8" class="st1" width="9.9" height="1"/>
		<rect x="11.3" y="14.9" class="st1" width="12.3" height="1"/>
		<rect x="15.4" y="16.9" class="st1" width="4.1" height="1"/>
		<rect x="13.9" y="19" class="st1" width="7.2" height="1"/>
		<polygon class="st1" points="21.1,28 22.4,28 22.4,23.1 21.1,23.1 19,25.5 		"/>
		<g>
			<polygon class="st1" points="20,23.1 20,20.7 15,20.7 15,34.1 20,34.1 20,28 18,25.5 			"/>
		</g>
	</g>
</g>
</svg>
