<?xml version="1.0" encoding="utf-8"?>
<!-- Generator: Adobe Illustrator 24.0.2, SVG Export Plug-In . SVG Version: 6.00 Build 0)  -->
<svg version="1.1" id="Слой_1" xmlns="http://www.w3.org/2000/svg" xmlns:xlink="http://www.w3.org/1999/xlink" x="0px" y="0px"
	 width="35px" height="35px" viewBox="0 0 35 35" style="enable-background:new 0 0 35 35;" xml:space="preserve">
<style type="text/css">
	.st0{fill:#050606;}
	.st1{fill:#AE1921;}
</style>
<g>
	<g>
		<path class="st0" d="M23.3,15.2c-0.2,0-0.3,0-0.5-0.1L21,14c-0.5-0.3-0.6-0.9-0.4-1.4l1.9-3.3c0.1-0.2,0.4-0.4,0.6-0.5
			c0.3-0.1,0.5,0,0.8,0.1l1.8,1c0.2,0.1,0.4,0.4,0.5,0.6s0,0.5-0.1,0.8l-1.9,3.3c-0.1,0.2-0.4,0.4-0.6,0.5
			C23.4,15.2,23.4,15.2,23.3,15.2z M22.9,12.8L22.9,12.8l1-1.5l-0.1,0L22.9,12.8z"/>
		<path class="st0" d="M28,34.9H7c-0.6,0-1-0.4-1-1v-3.6c0-0.6,0.4-1,1-1h21c0.6,0,1,0.4,1,1v3.6C29,34.4,28.6,34.9,28,34.9z
			 M8,32.9h19v-1.6H8V32.9z"/>
		<path class="st0" d="M13.9,30.1H7c-0.3,0-0.6-0.2-0.8-0.4C6,29.4,5.9,29,6.1,28.7l4.8-12.9c0.1-0.4,0.5-0.6,0.9-0.6c0,0,0,0,0,0
			c0.4,0,0.8,0.2,0.9,0.6l2,5c0,0.1,0.1,0.2,0.1,0.4v7.9C14.9,29.6,14.4,30.1,13.9,30.1z M8.4,28.1h4.4v-6.7l-1-2.5L8.4,28.1z"/>
		<path class="st0" d="M27.9,30.1H21c-0.6,0-1-0.4-1-1v-7.9c0-0.1,0-0.3,0.1-0.4l2-5c0.2-0.4,0.5-0.6,0.9-0.6c0.4,0,0.8,0.3,0.9,0.6
			l4.8,12.9c0.1,0.3,0.1,0.7-0.1,0.9S28.2,30.1,27.9,30.1z M22,28.1h4.4L23,18.9l-1,2.5V28.1z"/>
		<path class="st0" d="M17.5,25.2c-1.9,0-3.5-1.6-3.5-3.5s1.6-3.5,3.5-3.5s3.5,1.6,3.5,3.5S19.4,25.2,17.5,25.2z M17.5,20.2
			c-0.8,0-1.5,0.7-1.5,1.5s0.7,1.5,1.5,1.5c0.8,0,1.5-0.7,1.5-1.5S18.3,20.2,17.5,20.2z"/>
		<path class="st0" d="M20.3,21c-0.3,0-0.7-0.2-0.9-0.5c-0.4-0.7-1.1-1.1-1.9-1.1c-0.7,0-1.5,0.4-1.9,1.1c-0.2,0.3-0.5,0.5-0.9,0.5
			c-0.4,0-0.7-0.2-0.9-0.6l-2.4-5.2c-0.2-0.5,0-1,0.4-1.3l1.4-0.7l-2.1-3.5c-0.1-0.2-0.2-0.5-0.1-0.8l2-6.1c0.1-0.4,0.5-0.7,1-0.7h0
			l2,0v-1c0-0.6,0.4-1,1-1h1c0.6,0,1,0.4,1,1v1l2,0c0,0,0,0,0,0c0.4,0,0.8,0.3,1,0.7l2,6.1C24,9.2,24,9.5,23.8,9.7l-2.1,3.5l1.4,0.7
			c0.5,0.3,0.6,0.8,0.4,1.3l-2.4,5.2C21,20.8,20.7,21,20.3,21C20.3,21,20.3,21,20.3,21z M17.5,17.4c0.9,0,1.8,0.3,2.5,0.8l1.4-3
			l-1.5-0.8c-0.2-0.1-0.4-0.4-0.5-0.6c-0.1-0.3,0-0.5,0.1-0.8l2.4-4l-1.6-5l-2.3,0c0,0,0,0,0,0c-0.2,0-0.3,0-0.5-0.1
			C17.4,4,17.2,4.1,17,4.1h0l-2.2,0l-1.6,5l2.4,4c0.1,0.2,0.2,0.5,0.1,0.8s-0.2,0.5-0.5,0.6l-1.5,0.8l1.4,3
			C15.8,17.7,16.6,17.5,17.5,17.4z"/>
		<path class="st0" d="M20.1,30.1H15c-0.6,0-1-0.4-1-1v-5.2c0-0.4,0.3-0.8,0.7-0.9c0.1,0,0.3-0.1,0.4-0.1c0.3,0,0.6,0.1,0.8,0.3
			c0.4,0.5,1,0.8,1.7,0.8c0.6,0,1.2-0.3,1.7-0.8c0.2-0.2,0.4-0.3,0.6-0.3c0.2-0.1,0.4-0.1,0.6,0c0.4,0.1,0.6,0.5,0.6,1v5.2
			C21.1,29.6,20.6,30.1,20.1,30.1z M16,28.1h3.1v-2.3c-0.5,0.2-1,0.3-1.5,0.3c-0.5,0-1.1-0.1-1.6-0.3V28.1z"/>
		<path class="st0" d="M11.7,15.2c-0.3,0-0.7-0.2-0.9-0.5l-1.9-3.3c-0.1-0.2-0.2-0.5-0.1-0.8C8.9,10.4,9,10.1,9.3,10L11,9
			c0.2-0.1,0.5-0.2,0.8-0.1C12,9,12.3,9.1,12.4,9.4l1.9,3.3c0.3,0.5,0.1,1.1-0.4,1.4l-1.8,1C12,15.1,11.8,15.2,11.7,15.2z
			 M11.1,11.2l0.9,1.6l0.1,0L11.1,11.2L11.1,11.2z"/>
	</g>
	<g>
		<rect x="21.4" y="11" transform="matrix(0.5 -0.866 0.866 0.5 1.2553 26.2184)" class="st1" width="3.8" height="2.1"/>
		<rect x="7" y="30.3" class="st1" width="21" height="3.6"/>
		<polygon class="st1" points="13.9,21.2 11.8,16.2 7,29.1 13.9,29.1 		"/>
		<polygon class="st1" points="21,21.2 21,29.1 27.9,29.1 23,16.2 		"/>
		<path class="st1" d="M17.5,24.2c1.4,0,2.5-1.1,2.5-2.5s-1.1-2.5-2.5-2.5S15,20.3,15,21.7S16.1,24.2,17.5,24.2z"/>
		<path class="st1" d="M12.4,14.8l2.4,5.2c0.6-0.9,1.6-1.6,2.8-1.6c1.2,0,2.2,0.7,2.8,1.6l2.4-5.2l-2.3-1.2L23,9.2l-2-6.1l-3,0v-2
			h-1v2l-3,0l-2,6.1l2.6,4.4L12.4,14.8z"/>
		<path class="st1" d="M15,29.1h0.1H20h0.1v-5.2c0,0-0.1,0.1-0.1,0.1v-0.1c-0.6,0.7-1.5,1.1-2.4,1.2c-1,0-1.8-0.5-2.4-1.2V24
			c0,0-0.1-0.1-0.1-0.1V29.1z"/>
		<rect x="10.6" y="10.1" transform="matrix(0.866 -0.5 0.5 0.866 -4.4572 7.4096)" class="st1" width="2.1" height="3.8"/>
	</g>
</g>
</svg>
